<svg width="938" height="161" viewBox="0 0 938 161" fill="none" xmlns="http://www.w3.org/2000/svg">
<path opacity="0.3" d="M162 40C162 62.0914 144.091 80 122 80C99.9086 80 82 62.0914 82 40C82 17.9086 99.9086 0 122 0C144.091 0 162 17.9086 162 40ZM92.9071 40C92.9071 56.0675 105.932 69.0929 122 69.0929C138.068 69.0929 151.093 56.0675 151.093 40C151.093 23.9325 138.068 10.9071 122 10.9071C105.932 10.9071 92.9071 23.9325 92.9071 40Z" fill="#2F2E30"/>
<circle cx="122" cy="40" r="29" fill="black"/>
<g clip-path="url(#clip0_31_90)">
<path d="M113.667 51.6667C115.508 51.6667 117 50.1743 117 48.3333C117 46.4924 115.508 45 113.667 45C111.826 45 110.333 46.4924 110.333 48.3333C110.333 50.1743 111.826 51.6667 113.667 51.6667Z" stroke="#FAFAFA" stroke-width="2" stroke-linecap="round" stroke-linejoin="round"/>
<path d="M130.333 51.6667C132.174 51.6667 133.667 50.1743 133.667 48.3333C133.667 46.4924 132.174 45 130.333 45C128.492 45 127 46.4924 127 48.3333C127 50.1743 128.492 51.6667 130.333 51.6667Z" stroke="#FAFAFA" stroke-width="2" stroke-linecap="round" stroke-linejoin="round"/>
<path d="M110.333 48.3335H109C107.895 48.3335 107 47.4381 107 46.3335V41.6668M105.333 28.3335H121.667C122.771 28.3335 123.667 29.2289 123.667 30.3335V48.3335M117 48.3335H127M133.667 48.3335H135C136.105 48.3335 137 47.4381 137 46.3335V38.3335M137 38.3335H123.667M137 38.3335L132.583 30.9712C132.221 30.3688 131.57 30.0002 130.868 30.0002H123.667" stroke="#FAFAFA" stroke-width="2" stroke-linecap="round" stroke-linejoin="round"/>
<path d="M110 48H108.667C107.562 48 106.667 47.1046 106.667 46V41.3333M105 28H121.333C122.438 28 123.333 28.8954 123.333 30V48M117 48H126.667M134 48H134.667C135.771 48 136.667 47.1046 136.667 46V38M136.667 38H123.333M136.667 38L132.249 30.6377C131.888 30.0353 131.237 29.6667 130.534 29.6667H123.333" stroke="#FAFAFA" stroke-width="2" stroke-linecap="round" stroke-linejoin="round"/>
<path d="M107 31.8182H113.667" stroke="#FAFAFA" stroke-width="2" stroke-linecap="round" stroke-linejoin="round"/>
<path d="M103.818 35.4546H110.485" stroke="#FAFAFA" stroke-width="2" stroke-linecap="round" stroke-linejoin="round"/>
<path d="M107 39.0909H113.667" stroke="#FAFAFA" stroke-width="2" stroke-linecap="round" stroke-linejoin="round"/>
</g>
<path d="M11 111.04V113.3H5.18V116.88H9.64V119.1H5.18V125H2.38V111.04H11ZM20.1855 125L17.1055 119.56H15.7855V125H12.9855V111.04H18.2255C19.3055 111.04 20.2255 111.233 20.9855 111.62C21.7455 111.993 22.3121 112.507 22.6855 113.16C23.0721 113.8 23.2655 114.52 23.2655 115.32C23.2655 116.24 22.9988 117.073 22.4655 117.82C21.9321 118.553 21.1388 119.06 20.0855 119.34L23.4255 125H20.1855ZM15.7855 117.46H18.1255C18.8855 117.46 19.4521 117.28 19.8255 116.92C20.1988 116.547 20.3855 116.033 20.3855 115.38C20.3855 114.74 20.1988 114.247 19.8255 113.9C19.4521 113.54 18.8855 113.36 18.1255 113.36H15.7855V117.46ZM28.598 113.3V116.8H33.298V119.02H28.598V122.72H33.898V125H25.798V111.02H33.898V113.3H28.598ZM39.2425 113.3V116.8H43.9425V119.02H39.2425V122.72H44.5425V125H36.4425V111.02H44.5425V113.3H39.2425ZM60.4127 122.34H54.8527L53.9327 125H50.9927L56.0127 111.02H59.2727L64.2927 125H61.3327L60.4127 122.34ZM59.6527 120.1L57.6327 114.26L55.6127 120.1H59.6527ZM78.1091 125H75.3091L68.9691 115.42V125H66.1691V111.02H68.9691L75.3091 120.62V111.02H78.1091V125ZM85.7561 111.04C87.2228 111.04 88.5094 111.327 89.6161 111.9C90.7361 112.473 91.5961 113.293 92.1961 114.36C92.8094 115.413 93.1161 116.64 93.1161 118.04C93.1161 119.44 92.8094 120.667 92.1961 121.72C91.5961 122.76 90.7361 123.567 89.6161 124.14C88.5094 124.713 87.2228 125 85.7561 125H80.8761V111.04H85.7561ZM85.6561 122.62C87.1228 122.62 88.2561 122.22 89.0561 121.42C89.8561 120.62 90.2561 119.493 90.2561 118.04C90.2561 116.587 89.8561 115.453 89.0561 114.64C88.2561 113.813 87.1228 113.4 85.6561 113.4H83.6761V122.62H85.6561ZM108.598 111.04V113.3H102.778V116.88H107.238V119.1H102.778V125H99.9777V111.04H108.598ZM119.143 122.34H113.583L112.663 125H109.723L114.743 111.02H118.003L123.023 125H120.063L119.143 122.34ZM118.383 120.1L116.363 114.26L114.343 120.1H118.383ZM129.72 125.14C128.746 125.14 127.866 124.973 127.08 124.64C126.306 124.307 125.693 123.827 125.24 123.2C124.786 122.573 124.553 121.833 124.54 120.98H127.54C127.58 121.553 127.78 122.007 128.14 122.34C128.513 122.673 129.02 122.84 129.66 122.84C130.313 122.84 130.826 122.687 131.2 122.38C131.573 122.06 131.76 121.647 131.76 121.14C131.76 120.727 131.633 120.387 131.38 120.12C131.126 119.853 130.806 119.647 130.42 119.5C130.046 119.34 129.526 119.167 128.86 118.98C127.953 118.713 127.213 118.453 126.64 118.2C126.08 117.933 125.593 117.54 125.18 117.02C124.78 116.487 124.58 115.78 124.58 114.9C124.58 114.073 124.786 113.353 125.2 112.74C125.613 112.127 126.193 111.66 126.94 111.34C127.686 111.007 128.54 110.84 129.5 110.84C130.94 110.84 132.106 111.193 133 111.9C133.906 112.593 134.406 113.567 134.5 114.82H131.42C131.393 114.34 131.186 113.947 130.8 113.64C130.426 113.32 129.926 113.16 129.3 113.16C128.753 113.16 128.313 113.3 127.98 113.58C127.66 113.86 127.5 114.267 127.5 114.8C127.5 115.173 127.62 115.487 127.86 115.74C128.113 115.98 128.42 116.18 128.78 116.34C129.153 116.487 129.673 116.66 130.34 116.86C131.246 117.127 131.986 117.393 132.56 117.66C133.133 117.927 133.626 118.327 134.04 118.86C134.453 119.393 134.66 120.093 134.66 120.96C134.66 121.707 134.466 122.4 134.08 123.04C133.693 123.68 133.126 124.193 132.38 124.58C131.633 124.953 130.746 125.14 129.72 125.14ZM146.587 111.04V113.3H142.867V125H140.067V113.3H136.347V111.04H146.587ZM158.276 111.04C159.742 111.04 161.029 111.327 162.136 111.9C163.256 112.473 164.116 113.293 164.716 114.36C165.329 115.413 165.636 116.64 165.636 118.04C165.636 119.44 165.329 120.667 164.716 121.72C164.116 122.76 163.256 123.567 162.136 124.14C161.029 124.713 159.742 125 158.276 125H153.396V111.04H158.276ZM158.176 122.62C159.642 122.62 160.776 122.22 161.576 121.42C162.376 120.62 162.776 119.493 162.776 118.04C162.776 116.587 162.376 115.453 161.576 114.64C160.776 113.813 159.642 113.4 158.176 113.4H156.196V122.62H158.176ZM170.532 113.3V116.8H175.232V119.02H170.532V122.72H175.832V125H167.732V111.02H175.832V113.3H170.532ZM181.176 122.78H185.776V125H178.376V111.04H181.176V122.78ZM190.356 111.04V125H187.556V111.04H190.356ZM205.662 111.04L200.542 125H197.142L192.022 111.04H195.022L198.862 122.14L202.682 111.04H205.662ZM210.141 113.3V116.8H214.841V119.02H210.141V122.72H215.441V125H207.341V111.02H215.441V113.3H210.141ZM225.185 125L222.105 119.56H220.785V125H217.985V111.04H223.225C224.305 111.04 225.225 111.233 225.985 111.62C226.745 111.993 227.312 112.507 227.685 113.16C228.072 113.8 228.265 114.52 228.265 115.32C228.265 116.24 227.999 117.073 227.465 117.82C226.932 118.553 226.139 119.06 225.085 119.34L228.425 125H225.185ZM220.785 117.46H223.125C223.885 117.46 224.452 117.28 224.825 116.92C225.199 116.547 225.385 116.033 225.385 115.38C225.385 114.74 225.199 114.247 224.825 113.9C224.452 113.54 223.885 113.36 223.125 113.36H220.785V117.46ZM241.898 111.04L237.178 120.14V125H234.378V120.14L229.638 111.04H232.798L235.798 117.42L238.778 111.04H241.898Z" fill="black"/>
<path d="M6.74341 145.242V146.278H2.50141V149.568H5.94541V150.604H2.50141V155H1.22741V145.242H6.74341ZM9.5561 148.574C9.7801 148.135 10.0974 147.795 10.5081 147.552C10.9281 147.309 11.4368 147.188 12.0341 147.188V148.504H11.6981C10.2701 148.504 9.5561 149.279 9.5561 150.828V155H8.2821V147.328H9.5561V148.574ZM20.5048 150.87C20.5048 151.113 20.4908 151.369 20.4628 151.64H14.3308C14.3774 152.396 14.6341 152.989 15.1008 153.418C15.5768 153.838 16.1508 154.048 16.8228 154.048C17.3734 154.048 17.8308 153.922 18.1948 153.67C18.5681 153.409 18.8294 153.063 18.9788 152.634H20.3508C20.1454 153.371 19.7348 153.973 19.1188 154.44C18.5028 154.897 17.7374 155.126 16.8228 155.126C16.0948 155.126 15.4414 154.963 14.8628 154.636C14.2934 154.309 13.8454 153.847 13.5188 153.25C13.1921 152.643 13.0288 151.943 13.0288 151.15C13.0288 150.357 13.1874 149.661 13.5048 149.064C13.8221 148.467 14.2654 148.009 14.8348 147.692C15.4134 147.365 16.0761 147.202 16.8228 147.202C17.5508 147.202 18.1948 147.361 18.7548 147.678C19.3148 147.995 19.7441 148.434 20.0428 148.994C20.3508 149.545 20.5048 150.17 20.5048 150.87ZM19.1888 150.604C19.1888 150.119 19.0814 149.703 18.8668 149.358C18.6521 149.003 18.3581 148.737 17.9848 148.56C17.6208 148.373 17.2148 148.28 16.7668 148.28C16.1228 148.28 15.5721 148.485 15.1148 148.896C14.6668 149.307 14.4101 149.876 14.3448 150.604H19.1888ZM29.1864 150.87C29.1864 151.113 29.1724 151.369 29.1444 151.64H23.0124C23.0591 152.396 23.3157 152.989 23.7824 153.418C24.2584 153.838 24.8324 154.048 25.5044 154.048C26.0551 154.048 26.5124 153.922 26.8764 153.67C27.2497 153.409 27.5111 153.063 27.6604 152.634H29.0324C28.8271 153.371 28.4164 153.973 27.8004 154.44C27.1844 154.897 26.4191 155.126 25.5044 155.126C24.7764 155.126 24.1231 154.963 23.5444 154.636C22.9751 154.309 22.5271 153.847 22.2004 153.25C21.8737 152.643 21.7104 151.943 21.7104 151.15C21.7104 150.357 21.8691 149.661 22.1864 149.064C22.5037 148.467 22.9471 148.009 23.5164 147.692C24.0951 147.365 24.7577 147.202 25.5044 147.202C26.2324 147.202 26.8764 147.361 27.4364 147.678C27.9964 147.995 28.4257 148.434 28.7244 148.994C29.0324 149.545 29.1864 150.17 29.1864 150.87ZM27.8704 150.604C27.8704 150.119 27.7631 149.703 27.5484 149.358C27.3337 149.003 27.0397 148.737 26.6664 148.56C26.3024 148.373 25.8964 148.28 25.4484 148.28C24.8044 148.28 24.2537 148.485 23.7964 148.896C23.3484 149.307 23.0917 149.876 23.0264 150.604H27.8704ZM34.1245 151.136C34.1245 150.352 34.2831 149.666 34.6005 149.078C34.9178 148.481 35.3518 148.019 35.9025 147.692C36.4625 147.365 37.0878 147.202 37.7785 147.202C38.3758 147.202 38.9311 147.342 39.4445 147.622C39.9578 147.893 40.3498 148.252 40.6205 148.7V144.64H41.9085V155H40.6205V153.558C40.3685 154.015 39.9951 154.393 39.5005 154.692C39.0058 154.981 38.4271 155.126 37.7645 155.126C37.0831 155.126 36.4625 154.958 35.9025 154.622C35.3518 154.286 34.9178 153.815 34.6005 153.208C34.2831 152.601 34.1245 151.911 34.1245 151.136ZM40.6205 151.15C40.6205 150.571 40.5038 150.067 40.2705 149.638C40.0371 149.209 39.7198 148.882 39.3185 148.658C38.9265 148.425 38.4925 148.308 38.0165 148.308C37.5405 148.308 37.1065 148.42 36.7145 148.644C36.3225 148.868 36.0098 149.195 35.7765 149.624C35.5431 150.053 35.4265 150.557 35.4265 151.136C35.4265 151.724 35.5431 152.237 35.7765 152.676C36.0098 153.105 36.3225 153.437 36.7145 153.67C37.1065 153.894 37.5405 154.006 38.0165 154.006C38.4925 154.006 38.9265 153.894 39.3185 153.67C39.7198 153.437 40.0371 153.105 40.2705 152.676C40.5038 152.237 40.6205 151.729 40.6205 151.15ZM51.0614 150.87C51.0614 151.113 51.0474 151.369 51.0194 151.64H44.8874C44.9341 152.396 45.1907 152.989 45.6574 153.418C46.1334 153.838 46.7074 154.048 47.3794 154.048C47.9301 154.048 48.3874 153.922 48.7514 153.67C49.1247 153.409 49.3861 153.063 49.5354 152.634H50.9074C50.7021 153.371 50.2914 153.973 49.6754 154.44C49.0594 154.897 48.2941 155.126 47.3794 155.126C46.6514 155.126 45.9981 154.963 45.4194 154.636C44.8501 154.309 44.4021 153.847 44.0754 153.25C43.7487 152.643 43.5854 151.943 43.5854 151.15C43.5854 150.357 43.7441 149.661 44.0614 149.064C44.3787 148.467 44.8221 148.009 45.3914 147.692C45.9701 147.365 46.6327 147.202 47.3794 147.202C48.1074 147.202 48.7514 147.361 49.3114 147.678C49.8714 147.995 50.3007 148.434 50.5994 148.994C50.9074 149.545 51.0614 150.17 51.0614 150.87ZM49.7454 150.604C49.7454 150.119 49.6381 149.703 49.4234 149.358C49.2087 149.003 48.9147 148.737 48.5414 148.56C48.1774 148.373 47.7714 148.28 47.3234 148.28C46.6794 148.28 46.1287 148.485 45.6714 148.896C45.2234 149.307 44.9667 149.876 44.9014 150.604H49.7454ZM54.017 144.64V155H52.743V144.64H54.017ZM56.8464 146.082C56.6037 146.082 56.3984 145.998 56.2304 145.83C56.0624 145.662 55.9784 145.457 55.9784 145.214C55.9784 144.971 56.0624 144.766 56.2304 144.598C56.3984 144.43 56.6037 144.346 56.8464 144.346C57.0797 144.346 57.2757 144.43 57.4344 144.598C57.6024 144.766 57.6864 144.971 57.6864 145.214C57.6864 145.457 57.6024 145.662 57.4344 145.83C57.2757 145.998 57.0797 146.082 56.8464 146.082ZM57.4624 147.328V155H56.1884V147.328H57.4624ZM62.4897 153.824L64.8697 147.328H66.2277L63.2177 155H61.7337L58.7237 147.328H60.0957L62.4897 153.824ZM74.4813 150.87C74.4813 151.113 74.4673 151.369 74.4393 151.64H68.3073C68.354 152.396 68.6107 152.989 69.0773 153.418C69.5533 153.838 70.1273 154.048 70.7993 154.048C71.35 154.048 71.8073 153.922 72.1713 153.67C72.5447 153.409 72.806 153.063 72.9553 152.634H74.3273C74.122 153.371 73.7113 153.973 73.0953 154.44C72.4793 154.897 71.714 155.126 70.7993 155.126C70.0713 155.126 69.418 154.963 68.8393 154.636C68.27 154.309 67.822 153.847 67.4953 153.25C67.1687 152.643 67.0053 151.943 67.0053 151.15C67.0053 150.357 67.164 149.661 67.4813 149.064C67.7987 148.467 68.242 148.009 68.8113 147.692C69.39 147.365 70.0527 147.202 70.7993 147.202C71.5273 147.202 72.1713 147.361 72.7313 147.678C73.2913 147.995 73.7207 148.434 74.0193 148.994C74.3273 149.545 74.4813 150.17 74.4813 150.87ZM73.1653 150.604C73.1653 150.119 73.058 149.703 72.8433 149.358C72.6287 149.003 72.3347 148.737 71.9613 148.56C71.5973 148.373 71.1913 148.28 70.7433 148.28C70.0993 148.28 69.5487 148.485 69.0913 148.896C68.6433 149.307 68.3867 149.876 68.3213 150.604H73.1653ZM77.437 148.574C77.661 148.135 77.9783 147.795 78.389 147.552C78.809 147.309 79.3176 147.188 79.915 147.188V148.504H79.579C78.151 148.504 77.437 149.279 77.437 150.828V155H76.163V147.328H77.437V148.574ZM87.9936 147.328L83.3736 158.612H82.0576L83.5696 154.916L80.4756 147.328H81.8896L84.2976 153.544L86.6776 147.328H87.9936ZM96.1287 148.378H94.5187V155H93.2447V148.378H92.2507V147.328H93.2447V146.782C93.2447 145.923 93.464 145.298 93.9027 144.906C94.3507 144.505 95.0647 144.304 96.0447 144.304V145.368C95.4847 145.368 95.088 145.48 94.8547 145.704C94.6307 145.919 94.5187 146.278 94.5187 146.782V147.328H96.1287V148.378ZM100.96 155.126C100.241 155.126 99.5881 154.963 99.0001 154.636C98.4215 154.309 97.9641 153.847 97.6281 153.25C97.3015 152.643 97.1381 151.943 97.1381 151.15C97.1381 150.366 97.3061 149.675 97.6421 149.078C97.9875 148.471 98.4541 148.009 99.0421 147.692C99.6301 147.365 100.288 147.202 101.016 147.202C101.744 147.202 102.402 147.365 102.99 147.692C103.578 148.009 104.04 148.467 104.376 149.064C104.721 149.661 104.894 150.357 104.894 151.15C104.894 151.943 104.717 152.643 104.362 153.25C104.017 153.847 103.545 154.309 102.948 154.636C102.351 154.963 101.688 155.126 100.96 155.126ZM100.96 154.006C101.417 154.006 101.847 153.899 102.248 153.684C102.649 153.469 102.971 153.147 103.214 152.718C103.466 152.289 103.592 151.766 103.592 151.15C103.592 150.534 103.471 150.011 103.228 149.582C102.985 149.153 102.668 148.835 102.276 148.63C101.884 148.415 101.459 148.308 101.002 148.308C100.535 148.308 100.106 148.415 99.7141 148.63C99.3315 148.835 99.0235 149.153 98.7901 149.582C98.5568 150.011 98.4401 150.534 98.4401 151.15C98.4401 151.775 98.5521 152.303 98.7761 152.732C99.0095 153.161 99.3175 153.483 99.7001 153.698C100.083 153.903 100.503 154.006 100.96 154.006ZM107.843 148.574C108.067 148.135 108.385 147.795 108.795 147.552C109.215 147.309 109.724 147.188 110.321 147.188V148.504H109.985C108.557 148.504 107.843 149.279 107.843 150.828V155H106.569V147.328H107.843V148.574ZM115.048 151.136C115.048 150.352 115.207 149.666 115.524 149.078C115.842 148.481 116.276 148.019 116.826 147.692C117.386 147.365 118.007 147.202 118.688 147.202C119.36 147.202 119.944 147.347 120.438 147.636C120.933 147.925 121.302 148.289 121.544 148.728V147.328H122.832V155H121.544V153.572C121.292 154.02 120.914 154.393 120.41 154.692C119.916 154.981 119.337 155.126 118.674 155.126C117.993 155.126 117.377 154.958 116.826 154.622C116.276 154.286 115.842 153.815 115.524 153.208C115.207 152.601 115.048 151.911 115.048 151.136ZM121.544 151.15C121.544 150.571 121.428 150.067 121.194 149.638C120.961 149.209 120.644 148.882 120.242 148.658C119.85 148.425 119.416 148.308 118.94 148.308C118.464 148.308 118.03 148.42 117.638 148.644C117.246 148.868 116.934 149.195 116.7 149.624C116.467 150.053 116.35 150.557 116.35 151.136C116.35 151.724 116.467 152.237 116.7 152.676C116.934 153.105 117.246 153.437 117.638 153.67C118.03 153.894 118.464 154.006 118.94 154.006C119.416 154.006 119.85 153.894 120.242 153.67C120.644 153.437 120.961 153.105 121.194 152.676C121.428 152.237 121.544 151.729 121.544 151.15ZM126.259 144.64V155H124.985V144.64H126.259ZM129.705 144.64V155H128.431V144.64H129.705ZM138.954 155.126C138.236 155.126 137.582 154.963 136.994 154.636C136.416 154.309 135.958 153.847 135.622 153.25C135.296 152.643 135.132 151.943 135.132 151.15C135.132 150.366 135.3 149.675 135.636 149.078C135.982 148.471 136.448 148.009 137.036 147.692C137.624 147.365 138.282 147.202 139.01 147.202C139.738 147.202 140.396 147.365 140.984 147.692C141.572 148.009 142.034 148.467 142.37 149.064C142.716 149.661 142.888 150.357 142.888 151.15C142.888 151.943 142.711 152.643 142.356 153.25C142.011 153.847 141.54 154.309 140.942 154.636C140.345 154.963 139.682 155.126 138.954 155.126ZM138.954 154.006C139.412 154.006 139.841 153.899 140.242 153.684C140.644 153.469 140.966 153.147 141.208 152.718C141.46 152.289 141.586 151.766 141.586 151.15C141.586 150.534 141.465 150.011 141.222 149.582C140.98 149.153 140.662 148.835 140.27 148.63C139.878 148.415 139.454 148.308 138.996 148.308C138.53 148.308 138.1 148.415 137.708 148.63C137.326 148.835 137.018 149.153 136.784 149.582C136.551 150.011 136.434 150.534 136.434 151.15C136.434 151.775 136.546 152.303 136.77 152.732C137.004 153.161 137.312 153.483 137.694 153.698C138.077 153.903 138.497 154.006 138.954 154.006ZM145.837 148.574C146.061 148.135 146.379 147.795 146.789 147.552C147.209 147.309 147.718 147.188 148.315 147.188V148.504H147.979C146.551 148.504 145.837 149.279 145.837 150.828V155H144.563V147.328H145.837V148.574ZM149.31 151.136C149.31 150.352 149.469 149.666 149.786 149.078C150.103 148.481 150.537 148.019 151.088 147.692C151.648 147.365 152.273 147.202 152.964 147.202C153.561 147.202 154.117 147.342 154.63 147.622C155.143 147.893 155.535 148.252 155.806 148.7V144.64H157.094V155H155.806V153.558C155.554 154.015 155.181 154.393 154.686 154.692C154.191 154.981 153.613 155.126 152.95 155.126C152.269 155.126 151.648 154.958 151.088 154.622C150.537 154.286 150.103 153.815 149.786 153.208C149.469 152.601 149.31 151.911 149.31 151.136ZM155.806 151.15C155.806 150.571 155.689 150.067 155.456 149.638C155.223 149.209 154.905 148.882 154.504 148.658C154.112 148.425 153.678 148.308 153.202 148.308C152.726 148.308 152.292 148.42 151.9 148.644C151.508 148.868 151.195 149.195 150.962 149.624C150.729 150.053 150.612 150.557 150.612 151.136C150.612 151.724 150.729 152.237 150.962 152.676C151.195 153.105 151.508 153.437 151.9 153.67C152.292 153.894 152.726 154.006 153.202 154.006C153.678 154.006 154.112 153.894 154.504 153.67C154.905 153.437 155.223 153.105 155.456 152.676C155.689 152.237 155.806 151.729 155.806 151.15ZM166.247 150.87C166.247 151.113 166.233 151.369 166.205 151.64H160.073C160.12 152.396 160.376 152.989 160.843 153.418C161.319 153.838 161.893 154.048 162.565 154.048C163.116 154.048 163.573 153.922 163.937 153.67C164.31 153.409 164.572 153.063 164.721 152.634H166.093C165.888 153.371 165.477 153.973 164.861 154.44C164.245 154.897 163.48 155.126 162.565 155.126C161.837 155.126 161.184 154.963 160.605 154.636C160.036 154.309 159.588 153.847 159.261 153.25C158.934 152.643 158.771 151.943 158.771 151.15C158.771 150.357 158.93 149.661 159.247 149.064C159.564 148.467 160.008 148.009 160.577 147.692C161.156 147.365 161.818 147.202 162.565 147.202C163.293 147.202 163.937 147.361 164.497 147.678C165.057 147.995 165.486 148.434 165.785 148.994C166.093 149.545 166.247 150.17 166.247 150.87ZM164.931 150.604C164.931 150.119 164.824 149.703 164.609 149.358C164.394 149.003 164.1 148.737 163.727 148.56C163.363 148.373 162.957 148.28 162.509 148.28C161.865 148.28 161.314 148.485 160.857 148.896C160.409 149.307 160.152 149.876 160.087 150.604H164.931ZM169.203 148.574C169.427 148.135 169.744 147.795 170.155 147.552C170.575 147.309 171.083 147.188 171.681 147.188V148.504H171.345C169.917 148.504 169.203 149.279 169.203 150.828V155H167.929V147.328H169.203V148.574ZM175.867 155.126C175.279 155.126 174.752 155.028 174.285 154.832C173.819 154.627 173.45 154.347 173.179 153.992C172.909 153.628 172.759 153.213 172.731 152.746H174.047C174.085 153.129 174.262 153.441 174.579 153.684C174.906 153.927 175.331 154.048 175.853 154.048C176.339 154.048 176.721 153.941 177.001 153.726C177.281 153.511 177.421 153.241 177.421 152.914C177.421 152.578 177.272 152.331 176.973 152.172C176.675 152.004 176.213 151.841 175.587 151.682C175.018 151.533 174.551 151.383 174.187 151.234C173.833 151.075 173.525 150.847 173.263 150.548C173.011 150.24 172.885 149.839 172.885 149.344C172.885 148.952 173.002 148.593 173.235 148.266C173.469 147.939 173.8 147.683 174.229 147.496C174.659 147.3 175.149 147.202 175.699 147.202C176.549 147.202 177.235 147.417 177.757 147.846C178.28 148.275 178.56 148.863 178.597 149.61H177.323C177.295 149.209 177.132 148.887 176.833 148.644C176.544 148.401 176.152 148.28 175.657 148.28C175.2 148.28 174.836 148.378 174.565 148.574C174.295 148.77 174.159 149.027 174.159 149.344C174.159 149.596 174.239 149.806 174.397 149.974C174.565 150.133 174.771 150.263 175.013 150.366C175.265 150.459 175.611 150.567 176.049 150.688C176.6 150.837 177.048 150.987 177.393 151.136C177.739 151.276 178.033 151.491 178.275 151.78C178.527 152.069 178.658 152.447 178.667 152.914C178.667 153.334 178.551 153.712 178.317 154.048C178.084 154.384 177.753 154.65 177.323 154.846C176.903 155.033 176.418 155.126 175.867 155.126ZM187.544 155.126C186.825 155.126 186.172 154.963 185.584 154.636C185.005 154.309 184.548 153.847 184.212 153.25C183.885 152.643 183.722 151.943 183.722 151.15C183.722 150.366 183.89 149.675 184.226 149.078C184.571 148.471 185.038 148.009 185.626 147.692C186.214 147.365 186.872 147.202 187.6 147.202C188.328 147.202 188.986 147.365 189.574 147.692C190.162 148.009 190.624 148.467 190.96 149.064C191.305 149.661 191.478 150.357 191.478 151.15C191.478 151.943 191.301 152.643 190.946 153.25C190.601 153.847 190.129 154.309 189.532 154.636C188.935 154.963 188.272 155.126 187.544 155.126ZM187.544 154.006C188.001 154.006 188.431 153.899 188.832 153.684C189.233 153.469 189.555 153.147 189.798 152.718C190.05 152.289 190.176 151.766 190.176 151.15C190.176 150.534 190.055 150.011 189.812 149.582C189.569 149.153 189.252 148.835 188.86 148.63C188.468 148.415 188.043 148.308 187.586 148.308C187.119 148.308 186.69 148.415 186.298 148.63C185.915 148.835 185.607 149.153 185.374 149.582C185.141 150.011 185.024 150.534 185.024 151.15C185.024 151.775 185.136 152.303 185.36 152.732C185.593 153.161 185.901 153.483 186.284 153.698C186.667 153.903 187.087 154.006 187.544 154.006ZM196.009 153.824L198.389 147.328H199.747L196.737 155H195.253L192.243 147.328H193.615L196.009 153.824ZM208.001 150.87C208.001 151.113 207.987 151.369 207.959 151.64H201.827C201.874 152.396 202.13 152.989 202.597 153.418C203.073 153.838 203.647 154.048 204.319 154.048C204.87 154.048 205.327 153.922 205.691 153.67C206.064 153.409 206.326 153.063 206.475 152.634H207.847C207.642 153.371 207.231 153.973 206.615 154.44C205.999 154.897 205.234 155.126 204.319 155.126C203.591 155.126 202.938 154.963 202.359 154.636C201.79 154.309 201.342 153.847 201.015 153.25C200.688 152.643 200.525 151.943 200.525 151.15C200.525 150.357 200.684 149.661 201.001 149.064C201.318 148.467 201.762 148.009 202.331 147.692C202.91 147.365 203.572 147.202 204.319 147.202C205.047 147.202 205.691 147.361 206.251 147.678C206.811 147.995 207.24 148.434 207.539 148.994C207.847 149.545 208.001 150.17 208.001 150.87ZM206.685 150.604C206.685 150.119 206.578 149.703 206.363 149.358C206.148 149.003 205.854 148.737 205.481 148.56C205.117 148.373 204.711 148.28 204.263 148.28C203.619 148.28 203.068 148.485 202.611 148.896C202.163 149.307 201.906 149.876 201.841 150.604H206.685ZM210.956 148.574C211.18 148.135 211.498 147.795 211.908 147.552C212.328 147.309 212.837 147.188 213.434 147.188V148.504H213.098C211.67 148.504 210.956 149.279 210.956 150.828V155H209.682V147.328H210.956V148.574ZM224.938 152.326C224.938 152.774 224.826 153.203 224.602 153.614C224.378 154.015 224.046 154.351 223.608 154.622C223.178 154.893 222.66 155.047 222.054 155.084V156.218H221.298V155.084C220.448 155.009 219.758 154.739 219.226 154.272C218.694 153.796 218.423 153.194 218.414 152.466H219.772C219.809 152.858 219.954 153.199 220.206 153.488C220.467 153.777 220.831 153.959 221.298 154.034V150.534C220.672 150.375 220.168 150.212 219.786 150.044C219.403 149.876 219.076 149.615 218.806 149.26C218.535 148.905 218.4 148.429 218.4 147.832C218.4 147.076 218.661 146.451 219.184 145.956C219.716 145.461 220.42 145.186 221.298 145.13V143.968H222.054V145.13C222.847 145.195 223.486 145.452 223.972 145.9C224.457 146.339 224.737 146.913 224.812 147.622H223.454C223.407 147.295 223.262 147.001 223.02 146.74C222.777 146.469 222.455 146.292 222.054 146.208V149.624C222.67 149.783 223.169 149.946 223.552 150.114C223.944 150.273 224.27 150.529 224.532 150.884C224.802 151.239 224.938 151.719 224.938 152.326ZM219.702 147.762C219.702 148.219 219.837 148.569 220.108 148.812C220.378 149.055 220.775 149.255 221.298 149.414V146.18C220.812 146.227 220.425 146.385 220.136 146.656C219.846 146.917 219.702 147.286 219.702 147.762ZM222.054 154.048C222.558 153.992 222.95 153.81 223.23 153.502C223.519 153.194 223.664 152.825 223.664 152.396C223.664 151.939 223.524 151.589 223.244 151.346C222.964 151.094 222.567 150.893 222.054 150.744V154.048ZM233.591 145.984H228.677V149.176C228.891 148.877 229.209 148.635 229.629 148.448C230.049 148.252 230.501 148.154 230.987 148.154C231.761 148.154 232.391 148.317 232.877 148.644C233.362 148.961 233.707 149.377 233.913 149.89C234.127 150.394 234.235 150.931 234.235 151.5C234.235 152.172 234.109 152.774 233.857 153.306C233.605 153.838 233.217 154.258 232.695 154.566C232.181 154.874 231.542 155.028 230.777 155.028C229.797 155.028 229.003 154.776 228.397 154.272C227.79 153.768 227.421 153.096 227.291 152.256H228.537C228.658 152.788 228.915 153.203 229.307 153.502C229.699 153.801 230.193 153.95 230.791 153.95C231.528 153.95 232.083 153.731 232.457 153.292C232.83 152.844 233.017 152.256 233.017 151.528C233.017 150.8 232.83 150.24 232.457 149.848C232.083 149.447 231.533 149.246 230.805 149.246C230.31 149.246 229.876 149.367 229.503 149.61C229.139 149.843 228.873 150.165 228.705 150.576H227.501V144.864H233.591V145.984ZM235.928 149.834C235.928 148.229 236.189 146.978 236.712 146.082C237.234 145.177 238.149 144.724 239.456 144.724C240.753 144.724 241.663 145.177 242.186 146.082C242.708 146.978 242.97 148.229 242.97 149.834C242.97 151.467 242.708 152.737 242.186 153.642C241.663 154.547 240.753 155 239.456 155C238.149 155 237.234 154.547 236.712 153.642C236.189 152.737 235.928 151.467 235.928 149.834ZM241.71 149.834C241.71 149.022 241.654 148.336 241.542 147.776C241.439 147.207 241.22 146.749 240.884 146.404C240.557 146.059 240.081 145.886 239.456 145.886C238.821 145.886 238.336 146.059 238 146.404C237.673 146.749 237.454 147.207 237.342 147.776C237.239 148.336 237.188 149.022 237.188 149.834C237.188 150.674 237.239 151.379 237.342 151.948C237.454 152.517 237.673 152.975 238 153.32C238.336 153.665 238.821 153.838 239.456 153.838C240.081 153.838 240.557 153.665 240.884 153.32C241.22 152.975 241.439 152.517 241.542 151.948C241.654 151.379 241.71 150.674 241.71 149.834Z" fill="black"/>
<path opacity="0.3" d="M503 40C503 62.0914 485.091 80 463 80C440.909 80 423 62.0914 423 40C423 17.9086 440.909 0 463 0C485.091 0 503 17.9086 503 40ZM433.907 40C433.907 56.0675 446.932 69.0929 463 69.0929C479.068 69.0929 492.093 56.0675 492.093 40C492.093 23.9325 479.068 10.9071 463 10.9071C446.932 10.9071 433.907 23.9325 433.907 40Z" fill="#2F2E30"/>
<circle cx="463" cy="40" r="29" fill="black"/>
<g clip-path="url(#clip1_31_90)">
<path d="M456.333 45C456.333 43.159 454.841 41.6666 453 41.6666C451.159 41.6666 449.667 43.159 449.667 45V48.3333C449.667 50.1742 451.159 51.6666 453 51.6666C454.841 51.6666 456.333 50.1742 456.333 48.3333V45Z" stroke="white" stroke-width="2" stroke-linecap="round" stroke-linejoin="round"/>
<path d="M476.333 45C476.333 43.159 474.841 41.6666 473 41.6666C471.159 41.6666 469.667 43.159 469.667 45V48.3333C469.667 50.1742 471.159 51.6666 473 51.6666C474.841 51.6666 476.333 50.1742 476.333 48.3333V45Z" stroke="white" stroke-width="2" stroke-linecap="round" stroke-linejoin="round"/>
<path d="M449.667 45V40C449.667 36.4637 451.071 33.0724 453.572 30.5719C456.072 28.0714 459.464 26.6666 463 26.6666C466.536 26.6666 469.928 28.0714 472.428 30.5719C474.929 33.0724 476.333 36.4637 476.333 40V45" stroke="white" stroke-width="2" stroke-linecap="round" stroke-linejoin="round"/>
<path d="M473 51.6666C473 52.9927 471.946 54.2645 470.071 55.2022C468.196 56.1398 465.652 56.6666 463 56.6666" stroke="white" stroke-width="2" stroke-linecap="round" stroke-linejoin="round"/>
</g>
<path d="M341.44 121.84C342.72 120.773 343.74 119.887 344.5 119.18C345.26 118.46 345.893 117.713 346.4 116.94C346.907 116.167 347.16 115.407 347.16 114.66C347.16 113.98 347 113.447 346.68 113.06C346.36 112.673 345.867 112.48 345.2 112.48C344.533 112.48 344.02 112.707 343.66 113.16C343.3 113.6 343.113 114.207 343.1 114.98H340.38C340.433 113.38 340.907 112.167 341.8 111.34C342.707 110.513 343.853 110.1 345.24 110.1C346.76 110.1 347.927 110.507 348.74 111.32C349.553 112.12 349.96 113.18 349.96 114.5C349.96 115.54 349.68 116.533 349.12 117.48C348.56 118.427 347.92 119.253 347.2 119.96C346.48 120.653 345.54 121.493 344.38 122.48H350.28V124.8H340.4V122.72L341.44 121.84ZM351.924 122.16V119.96L358.464 110.6H361.724V119.72H363.484V122.16H361.724V125H358.924V122.16H351.924ZM359.104 113.6L355.004 119.72H359.104V113.6ZM373.087 106.06L367.687 128.62H364.947L370.347 106.06H373.087ZM384.274 112.54L378.954 125H376.114L381.474 112.86H374.634V110.46H384.274V112.54ZM390.356 118C390.356 116.627 390.663 115.4 391.276 114.32C391.903 113.227 392.75 112.38 393.816 111.78C394.896 111.167 396.103 110.86 397.436 110.86C398.996 110.86 400.363 111.26 401.536 112.06C402.71 112.86 403.53 113.967 403.996 115.38H400.776C400.456 114.713 400.003 114.213 399.416 113.88C398.843 113.547 398.176 113.38 397.416 113.38C396.603 113.38 395.876 113.573 395.236 113.96C394.61 114.333 394.116 114.867 393.756 115.56C393.41 116.253 393.236 117.067 393.236 118C393.236 118.92 393.41 119.733 393.756 120.44C394.116 121.133 394.61 121.673 395.236 122.06C395.876 122.433 396.603 122.62 397.416 122.62C398.176 122.62 398.843 122.453 399.416 122.12C400.003 121.773 400.456 121.267 400.776 120.6H403.996C403.53 122.027 402.71 123.14 401.536 123.94C400.376 124.727 399.01 125.12 397.436 125.12C396.103 125.12 394.896 124.82 393.816 124.22C392.75 123.607 391.903 122.76 391.276 121.68C390.663 120.6 390.356 119.373 390.356 118ZM409.148 111.04V119.68C409.148 120.627 409.394 121.353 409.888 121.86C410.381 122.353 411.074 122.6 411.968 122.6C412.874 122.6 413.574 122.353 414.068 121.86C414.561 121.353 414.808 120.627 414.808 119.68V111.04H417.628V119.66C417.628 120.847 417.368 121.853 416.848 122.68C416.341 123.493 415.654 124.107 414.788 124.52C413.934 124.933 412.981 125.14 411.928 125.14C410.888 125.14 409.941 124.933 409.088 124.52C408.248 124.107 407.581 123.493 407.088 122.68C406.594 121.853 406.348 120.847 406.348 119.66V111.04H409.148ZM425.153 125.14C424.18 125.14 423.3 124.973 422.513 124.64C421.74 124.307 421.126 123.827 420.673 123.2C420.22 122.573 419.986 121.833 419.973 120.98H422.973C423.013 121.553 423.213 122.007 423.573 122.34C423.946 122.673 424.453 122.84 425.093 122.84C425.746 122.84 426.26 122.687 426.633 122.38C427.006 122.06 427.193 121.647 427.193 121.14C427.193 120.727 427.066 120.387 426.813 120.12C426.56 119.853 426.24 119.647 425.853 119.5C425.48 119.34 424.96 119.167 424.293 118.98C423.386 118.713 422.646 118.453 422.073 118.2C421.513 117.933 421.026 117.54 420.613 117.02C420.213 116.487 420.013 115.78 420.013 114.9C420.013 114.073 420.22 113.353 420.633 112.74C421.046 112.127 421.626 111.66 422.373 111.34C423.12 111.007 423.973 110.84 424.933 110.84C426.373 110.84 427.54 111.193 428.433 111.9C429.34 112.593 429.84 113.567 429.933 114.82H426.853C426.826 114.34 426.62 113.947 426.233 113.64C425.86 113.32 425.36 113.16 424.733 113.16C424.186 113.16 423.746 113.3 423.413 113.58C423.093 113.86 422.933 114.267 422.933 114.8C422.933 115.173 423.053 115.487 423.293 115.74C423.546 115.98 423.853 116.18 424.213 116.34C424.586 116.487 425.106 116.66 425.773 116.86C426.68 117.127 427.42 117.393 427.993 117.66C428.566 117.927 429.06 118.327 429.473 118.86C429.886 119.393 430.093 120.093 430.093 120.96C430.093 121.707 429.9 122.4 429.513 123.04C429.126 123.68 428.56 124.193 427.813 124.58C427.066 124.953 426.18 125.14 425.153 125.14ZM442.021 111.04V113.3H438.301V125H435.501V113.3H431.781V111.04H442.021ZM450.544 125.14C449.237 125.14 448.037 124.833 446.944 124.22C445.85 123.607 444.984 122.76 444.344 121.68C443.704 120.587 443.384 119.353 443.384 117.98C443.384 116.62 443.704 115.4 444.344 114.32C444.984 113.227 445.85 112.373 446.944 111.76C448.037 111.147 449.237 110.84 450.544 110.84C451.864 110.84 453.064 111.147 454.144 111.76C455.237 112.373 456.097 113.227 456.724 114.32C457.364 115.4 457.684 116.62 457.684 117.98C457.684 119.353 457.364 120.587 456.724 121.68C456.097 122.76 455.237 123.607 454.144 124.22C453.05 124.833 451.85 125.14 450.544 125.14ZM450.544 122.64C451.384 122.64 452.124 122.453 452.764 122.08C453.404 121.693 453.904 121.147 454.264 120.44C454.624 119.733 454.804 118.913 454.804 117.98C454.804 117.047 454.624 116.233 454.264 115.54C453.904 114.833 453.404 114.293 452.764 113.92C452.124 113.547 451.384 113.36 450.544 113.36C449.704 113.36 448.957 113.547 448.304 113.92C447.664 114.293 447.164 114.833 446.804 115.54C446.444 116.233 446.264 117.047 446.264 117.98C446.264 118.913 446.444 119.733 446.804 120.44C447.164 121.147 447.664 121.693 448.304 122.08C448.957 122.453 449.704 122.64 450.544 122.64ZM474.987 111.04V125H472.187V115.92L468.447 125H466.327L462.567 115.92V125H459.767V111.04H462.947L467.387 121.42L471.827 111.04H474.987ZM480.555 113.3V116.8H485.255V119.02H480.555V122.72H485.855V125H477.755V111.02H485.855V113.3H480.555ZM495.6 125L492.52 119.56H491.2V125H488.4V111.04H493.64C494.72 111.04 495.64 111.233 496.4 111.62C497.16 111.993 497.726 112.507 498.1 113.16C498.486 113.8 498.68 114.52 498.68 115.32C498.68 116.24 498.413 117.073 497.88 117.82C497.346 118.553 496.553 119.06 495.5 119.34L498.84 125H495.6ZM491.2 117.46H493.54C494.3 117.46 494.866 117.28 495.24 116.92C495.613 116.547 495.8 116.033 495.8 115.38C495.8 114.74 495.613 114.247 495.24 113.9C494.866 113.54 494.3 113.36 493.54 113.36H491.2V117.46ZM510.798 125.14C509.824 125.14 508.944 124.973 508.158 124.64C507.384 124.307 506.771 123.827 506.318 123.2C505.864 122.573 505.631 121.833 505.618 120.98H508.618C508.658 121.553 508.858 122.007 509.218 122.34C509.591 122.673 510.098 122.84 510.738 122.84C511.391 122.84 511.904 122.687 512.278 122.38C512.651 122.06 512.838 121.647 512.838 121.14C512.838 120.727 512.711 120.387 512.458 120.12C512.204 119.853 511.884 119.647 511.498 119.5C511.124 119.34 510.604 119.167 509.938 118.98C509.031 118.713 508.291 118.453 507.718 118.2C507.158 117.933 506.671 117.54 506.258 117.02C505.858 116.487 505.658 115.78 505.658 114.9C505.658 114.073 505.864 113.353 506.278 112.74C506.691 112.127 507.271 111.66 508.018 111.34C508.764 111.007 509.618 110.84 510.578 110.84C512.018 110.84 513.184 111.193 514.078 111.9C514.984 112.593 515.484 113.567 515.578 114.82H512.498C512.471 114.34 512.264 113.947 511.878 113.64C511.504 113.32 511.004 113.16 510.378 113.16C509.831 113.16 509.391 113.3 509.058 113.58C508.738 113.86 508.578 114.267 508.578 114.8C508.578 115.173 508.698 115.487 508.938 115.74C509.191 115.98 509.498 116.18 509.858 116.34C510.231 116.487 510.751 116.66 511.418 116.86C512.324 117.127 513.064 117.393 513.638 117.66C514.211 117.927 514.704 118.327 515.118 118.86C515.531 119.393 515.738 120.093 515.738 120.96C515.738 121.707 515.544 122.4 515.158 123.04C514.771 123.68 514.204 124.193 513.458 124.58C512.711 124.953 511.824 125.14 510.798 125.14ZM520.965 113.3V116.8H525.665V119.02H520.965V122.72H526.265V125H518.165V111.02H526.265V113.3H520.965ZM536.01 125L532.93 119.56H531.61V125H528.81V111.04H534.05C535.13 111.04 536.05 111.233 536.81 111.62C537.57 111.993 538.136 112.507 538.51 113.16C538.896 113.8 539.09 114.52 539.09 115.32C539.09 116.24 538.823 117.073 538.29 117.82C537.756 118.553 536.963 119.06 535.91 119.34L539.25 125H536.01ZM531.61 117.46H533.95C534.71 117.46 535.276 117.28 535.65 116.92C536.023 116.547 536.21 116.033 536.21 115.38C536.21 114.74 536.023 114.247 535.65 113.9C535.276 113.54 534.71 113.36 533.95 113.36H531.61V117.46ZM554.162 111.04L549.042 125H545.642L540.522 111.04H543.522L547.362 122.14L551.182 111.04H554.162ZM558.641 111.04V125H555.841V111.04H558.641ZM560.727 118C560.727 116.627 561.034 115.4 561.647 114.32C562.274 113.227 563.121 112.38 564.187 111.78C565.267 111.167 566.474 110.86 567.807 110.86C569.367 110.86 570.734 111.26 571.907 112.06C573.081 112.86 573.901 113.967 574.367 115.38H571.147C570.827 114.713 570.374 114.213 569.787 113.88C569.214 113.547 568.547 113.38 567.787 113.38C566.974 113.38 566.247 113.573 565.607 113.96C564.981 114.333 564.487 114.867 564.127 115.56C563.781 116.253 563.607 117.067 563.607 118C563.607 118.92 563.781 119.733 564.127 120.44C564.487 121.133 564.981 121.673 565.607 122.06C566.247 122.433 566.974 122.62 567.787 122.62C568.547 122.62 569.214 122.453 569.787 122.12C570.374 121.773 570.827 121.267 571.147 120.6H574.367C573.901 122.027 573.081 123.14 571.907 123.94C570.747 124.727 569.381 125.12 567.807 125.12C566.474 125.12 565.267 124.82 564.187 124.22C563.121 123.607 562.274 122.76 561.647 121.68C561.034 120.6 560.727 119.373 560.727 118ZM579.559 113.3V116.8H584.259V119.02H579.559V122.72H584.859V125H576.759V111.02H584.859V113.3H579.559Z" fill="black"/>
<path d="M360.094 145.242V146.278H355.852V149.568H359.296V150.604H355.852V155H354.578V145.242H360.094ZM362.907 148.574C363.131 148.135 363.448 147.795 363.859 147.552C364.279 147.309 364.787 147.188 365.385 147.188V148.504H365.049C363.621 148.504 362.907 149.279 362.907 150.828V155H361.633V147.328H362.907V148.574ZM367.513 146.082C367.271 146.082 367.065 145.998 366.897 145.83C366.729 145.662 366.645 145.457 366.645 145.214C366.645 144.971 366.729 144.766 366.897 144.598C367.065 144.43 367.271 144.346 367.513 144.346C367.747 144.346 367.943 144.43 368.101 144.598C368.269 144.766 368.353 144.971 368.353 145.214C368.353 145.457 368.269 145.662 368.101 145.83C367.943 145.998 367.747 146.082 367.513 146.082ZM368.129 147.328V155H366.855V147.328H368.129ZM377.301 150.87C377.301 151.113 377.287 151.369 377.259 151.64H371.127C371.173 152.396 371.43 152.989 371.897 153.418C372.373 153.838 372.947 154.048 373.619 154.048C374.169 154.048 374.627 153.922 374.991 153.67C375.364 153.409 375.625 153.063 375.775 152.634H377.147C376.941 153.371 376.531 153.973 375.915 154.44C375.299 154.897 374.533 155.126 373.619 155.126C372.891 155.126 372.237 154.963 371.659 154.636C371.089 154.309 370.641 153.847 370.315 153.25C369.988 152.643 369.825 151.943 369.825 151.15C369.825 150.357 369.983 149.661 370.301 149.064C370.618 148.467 371.061 148.009 371.631 147.692C372.209 147.365 372.872 147.202 373.619 147.202C374.347 147.202 374.991 147.361 375.551 147.678C376.111 147.995 376.54 148.434 376.839 148.994C377.147 149.545 377.301 150.17 377.301 150.87ZM375.985 150.604C375.985 150.119 375.877 149.703 375.663 149.358C375.448 149.003 375.154 148.737 374.781 148.56C374.417 148.373 374.011 148.28 373.563 148.28C372.919 148.28 372.368 148.485 371.911 148.896C371.463 149.307 371.206 149.876 371.141 150.604H375.985ZM382.72 147.188C383.654 147.188 384.41 147.473 384.988 148.042C385.567 148.602 385.856 149.414 385.856 150.478V155H384.596V150.66C384.596 149.895 384.405 149.311 384.022 148.91C383.64 148.499 383.117 148.294 382.454 148.294C381.782 148.294 381.246 148.504 380.844 148.924C380.452 149.344 380.256 149.955 380.256 150.758V155H378.982V147.328H380.256V148.42C380.508 148.028 380.849 147.725 381.278 147.51C381.717 147.295 382.198 147.188 382.72 147.188ZM387.461 151.136C387.461 150.352 387.62 149.666 387.937 149.078C388.255 148.481 388.689 148.019 389.239 147.692C389.799 147.365 390.425 147.202 391.115 147.202C391.713 147.202 392.268 147.342 392.781 147.622C393.295 147.893 393.687 148.252 393.957 148.7V144.64H395.245V155H393.957V153.558C393.705 154.015 393.332 154.393 392.837 154.692C392.343 154.981 391.764 155.126 391.101 155.126C390.42 155.126 389.799 154.958 389.239 154.622C388.689 154.286 388.255 153.815 387.937 153.208C387.62 152.601 387.461 151.911 387.461 151.136ZM393.957 151.15C393.957 150.571 393.841 150.067 393.607 149.638C393.374 149.209 393.057 148.882 392.655 148.658C392.263 148.425 391.829 148.308 391.353 148.308C390.877 148.308 390.443 148.42 390.051 148.644C389.659 148.868 389.347 149.195 389.113 149.624C388.88 150.053 388.763 150.557 388.763 151.136C388.763 151.724 388.88 152.237 389.113 152.676C389.347 153.105 389.659 153.437 390.051 153.67C390.443 153.894 390.877 154.006 391.353 154.006C391.829 154.006 392.263 153.894 392.655 153.67C393.057 153.437 393.374 153.105 393.607 152.676C393.841 152.237 393.957 151.729 393.957 151.15ZM398.672 144.64V155H397.398V144.64H398.672ZM407.452 147.328L402.832 158.612H401.516L403.028 154.916L399.934 147.328H401.348L403.756 153.544L406.136 147.328H407.452ZM412.101 153.978C413.286 153.026 414.215 152.247 414.887 151.64C415.559 151.024 416.123 150.385 416.581 149.722C417.047 149.05 417.281 148.392 417.281 147.748C417.281 147.141 417.131 146.665 416.833 146.32C416.543 145.965 416.072 145.788 415.419 145.788C414.784 145.788 414.289 145.989 413.935 146.39C413.589 146.782 413.403 147.309 413.375 147.972H412.143C412.18 146.927 412.497 146.119 413.095 145.55C413.692 144.981 414.462 144.696 415.405 144.696C416.366 144.696 417.127 144.962 417.687 145.494C418.256 146.026 418.541 146.759 418.541 147.692C418.541 148.467 418.307 149.223 417.841 149.96C417.383 150.688 416.861 151.332 416.273 151.892C415.685 152.443 414.933 153.087 414.019 153.824H418.835V154.888H412.101V153.978ZM419.999 152.746V151.78L424.913 144.976H426.439V151.64H427.839V152.746H426.439V155H425.179V152.746H419.999ZM425.235 146.306L421.469 151.64H425.235V146.306ZM434.082 141.812L430.246 157.38H428.986L432.808 141.812H434.082ZM442 145.872L438.108 155H436.82L440.768 145.998H435.364V144.906H442V145.872ZM446.879 151.15C446.879 150.357 447.038 149.666 447.355 149.078C447.673 148.481 448.111 148.019 448.671 147.692C449.241 147.365 449.889 147.202 450.617 147.202C451.56 147.202 452.335 147.431 452.941 147.888C453.557 148.345 453.963 148.98 454.159 149.792H452.787C452.657 149.325 452.4 148.957 452.017 148.686C451.644 148.415 451.177 148.28 450.617 148.28C449.889 148.28 449.301 148.532 448.853 149.036C448.405 149.531 448.181 150.235 448.181 151.15C448.181 152.074 448.405 152.788 448.853 153.292C449.301 153.796 449.889 154.048 450.617 154.048C451.177 154.048 451.644 153.917 452.017 153.656C452.391 153.395 452.647 153.021 452.787 152.536H454.159C453.954 153.32 453.543 153.95 452.927 154.426C452.311 154.893 451.541 155.126 450.617 155.126C449.889 155.126 449.241 154.963 448.671 154.636C448.111 154.309 447.673 153.847 447.355 153.25C447.038 152.653 446.879 151.953 446.879 151.15ZM462.663 147.328V155H461.389V153.866C461.147 154.258 460.806 154.566 460.367 154.79C459.938 155.005 459.462 155.112 458.939 155.112C458.342 155.112 457.805 154.991 457.329 154.748C456.853 154.496 456.475 154.123 456.195 153.628C455.925 153.133 455.789 152.531 455.789 151.822V147.328H457.049V151.654C457.049 152.41 457.241 152.993 457.623 153.404C458.006 153.805 458.529 154.006 459.191 154.006C459.873 154.006 460.409 153.796 460.801 153.376C461.193 152.956 461.389 152.345 461.389 151.542V147.328H462.663ZM467.53 155.126C466.942 155.126 466.415 155.028 465.948 154.832C465.482 154.627 465.113 154.347 464.842 153.992C464.572 153.628 464.422 153.213 464.394 152.746H465.71C465.748 153.129 465.925 153.441 466.242 153.684C466.569 153.927 466.994 154.048 467.516 154.048C468.002 154.048 468.384 153.941 468.664 153.726C468.944 153.511 469.084 153.241 469.084 152.914C469.084 152.578 468.935 152.331 468.636 152.172C468.338 152.004 467.876 151.841 467.25 151.682C466.681 151.533 466.214 151.383 465.85 151.234C465.496 151.075 465.188 150.847 464.926 150.548C464.674 150.24 464.548 149.839 464.548 149.344C464.548 148.952 464.665 148.593 464.898 148.266C465.132 147.939 465.463 147.683 465.892 147.496C466.322 147.3 466.812 147.202 467.362 147.202C468.212 147.202 468.898 147.417 469.42 147.846C469.943 148.275 470.223 148.863 470.26 149.61H468.986C468.958 149.209 468.795 148.887 468.496 148.644C468.207 148.401 467.815 148.28 467.32 148.28C466.863 148.28 466.499 148.378 466.228 148.574C465.958 148.77 465.822 149.027 465.822 149.344C465.822 149.596 465.902 149.806 466.06 149.974C466.228 150.133 466.434 150.263 466.676 150.366C466.928 150.459 467.274 150.567 467.712 150.688C468.263 150.837 468.711 150.987 469.056 151.136C469.402 151.276 469.696 151.491 469.938 151.78C470.19 152.069 470.321 152.447 470.33 152.914C470.33 153.334 470.214 153.712 469.98 154.048C469.747 154.384 469.416 154.65 468.986 154.846C468.566 155.033 468.081 155.126 467.53 155.126ZM473.683 148.378V152.9C473.683 153.273 473.762 153.539 473.921 153.698C474.079 153.847 474.355 153.922 474.747 153.922H475.685V155H474.537C473.827 155 473.295 154.837 472.941 154.51C472.586 154.183 472.409 153.647 472.409 152.9V148.378H471.415V147.328H472.409V145.396H473.683V147.328H475.685V148.378H473.683ZM480.574 155.126C479.856 155.126 479.202 154.963 478.614 154.636C478.036 154.309 477.578 153.847 477.242 153.25C476.916 152.643 476.752 151.943 476.752 151.15C476.752 150.366 476.92 149.675 477.256 149.078C477.602 148.471 478.068 148.009 478.656 147.692C479.244 147.365 479.902 147.202 480.63 147.202C481.358 147.202 482.016 147.365 482.604 147.692C483.192 148.009 483.654 148.467 483.99 149.064C484.336 149.661 484.508 150.357 484.508 151.15C484.508 151.943 484.331 152.643 483.976 153.25C483.631 153.847 483.16 154.309 482.562 154.636C481.965 154.963 481.302 155.126 480.574 155.126ZM480.574 154.006C481.032 154.006 481.461 153.899 481.862 153.684C482.264 153.469 482.586 153.147 482.828 152.718C483.08 152.289 483.206 151.766 483.206 151.15C483.206 150.534 483.085 150.011 482.842 149.582C482.6 149.153 482.282 148.835 481.89 148.63C481.498 148.415 481.074 148.308 480.616 148.308C480.15 148.308 479.72 148.415 479.328 148.63C478.946 148.835 478.638 149.153 478.404 149.582C478.171 150.011 478.054 150.534 478.054 151.15C478.054 151.775 478.166 152.303 478.39 152.732C478.624 153.161 478.932 153.483 479.314 153.698C479.697 153.903 480.117 154.006 480.574 154.006ZM495.409 147.188C496.007 147.188 496.539 147.314 497.005 147.566C497.472 147.809 497.841 148.177 498.111 148.672C498.382 149.167 498.517 149.769 498.517 150.478V155H497.257V150.66C497.257 149.895 497.066 149.311 496.683 148.91C496.31 148.499 495.801 148.294 495.157 148.294C494.495 148.294 493.967 148.509 493.575 148.938C493.183 149.358 492.987 149.969 492.987 150.772V155H491.727V150.66C491.727 149.895 491.536 149.311 491.153 148.91C490.78 148.499 490.271 148.294 489.627 148.294C488.965 148.294 488.437 148.509 488.045 148.938C487.653 149.358 487.457 149.969 487.457 150.772V155H486.183V147.328H487.457V148.434C487.709 148.033 488.045 147.725 488.465 147.51C488.895 147.295 489.366 147.188 489.879 147.188C490.523 147.188 491.093 147.333 491.587 147.622C492.082 147.911 492.451 148.336 492.693 148.896C492.908 148.355 493.263 147.935 493.757 147.636C494.252 147.337 494.803 147.188 495.409 147.188ZM507.607 150.87C507.607 151.113 507.593 151.369 507.565 151.64H501.433C501.48 152.396 501.737 152.989 502.203 153.418C502.679 153.838 503.253 154.048 503.925 154.048C504.476 154.048 504.933 153.922 505.297 153.67C505.671 153.409 505.932 153.063 506.081 152.634H507.453C507.248 153.371 506.837 153.973 506.221 154.44C505.605 154.897 504.84 155.126 503.925 155.126C503.197 155.126 502.544 154.963 501.965 154.636C501.396 154.309 500.948 153.847 500.621 153.25C500.295 152.643 500.131 151.943 500.131 151.15C500.131 150.357 500.29 149.661 500.607 149.064C500.925 148.467 501.368 148.009 501.937 147.692C502.516 147.365 503.179 147.202 503.925 147.202C504.653 147.202 505.297 147.361 505.857 147.678C506.417 147.995 506.847 148.434 507.145 148.994C507.453 149.545 507.607 150.17 507.607 150.87ZM506.291 150.604C506.291 150.119 506.184 149.703 505.969 149.358C505.755 149.003 505.461 148.737 505.087 148.56C504.723 148.373 504.317 148.28 503.869 148.28C503.225 148.28 502.675 148.485 502.217 148.896C501.769 149.307 501.513 149.876 501.447 150.604H506.291ZM510.563 148.574C510.787 148.135 511.104 147.795 511.515 147.552C511.935 147.309 512.444 147.188 513.041 147.188V148.504H512.705C511.277 148.504 510.563 149.279 510.563 150.828V155H509.289V147.328H510.563V148.574ZM520.96 155.126C520.372 155.126 519.845 155.028 519.378 154.832C518.911 154.627 518.543 154.347 518.272 153.992C518.001 153.628 517.852 153.213 517.824 152.746H519.14C519.177 153.129 519.355 153.441 519.672 153.684C519.999 153.927 520.423 154.048 520.946 154.048C521.431 154.048 521.814 153.941 522.094 153.726C522.374 153.511 522.514 153.241 522.514 152.914C522.514 152.578 522.365 152.331 522.066 152.172C521.767 152.004 521.305 151.841 520.68 151.682C520.111 151.533 519.644 151.383 519.28 151.234C518.925 151.075 518.617 150.847 518.356 150.548C518.104 150.24 517.978 149.839 517.978 149.344C517.978 148.952 518.095 148.593 518.328 148.266C518.561 147.939 518.893 147.683 519.322 147.496C519.751 147.3 520.241 147.202 520.792 147.202C521.641 147.202 522.327 147.417 522.85 147.846C523.373 148.275 523.653 148.863 523.69 149.61H522.416C522.388 149.209 522.225 148.887 521.926 148.644C521.637 148.401 521.245 148.28 520.75 148.28C520.293 148.28 519.929 148.378 519.658 148.574C519.387 148.77 519.252 149.027 519.252 149.344C519.252 149.596 519.331 149.806 519.49 149.974C519.658 150.133 519.863 150.263 520.106 150.366C520.358 150.459 520.703 150.567 521.142 150.688C521.693 150.837 522.141 150.987 522.486 151.136C522.831 151.276 523.125 151.491 523.368 151.78C523.62 152.069 523.751 152.447 523.76 152.914C523.76 153.334 523.643 153.712 523.41 154.048C523.177 154.384 522.845 154.65 522.416 154.846C521.996 155.033 521.511 155.126 520.96 155.126ZM532.362 147.328V155H531.088V153.866C530.846 154.258 530.505 154.566 530.066 154.79C529.637 155.005 529.161 155.112 528.638 155.112C528.041 155.112 527.504 154.991 527.028 154.748C526.552 154.496 526.174 154.123 525.894 153.628C525.624 153.133 525.488 152.531 525.488 151.822V147.328H526.748V151.654C526.748 152.41 526.94 152.993 527.322 153.404C527.705 153.805 528.228 154.006 528.89 154.006C529.572 154.006 530.108 153.796 530.5 153.376C530.892 152.956 531.088 152.345 531.088 151.542V147.328H532.362ZM535.788 148.742C536.04 148.303 536.413 147.939 536.908 147.65C537.412 147.351 537.995 147.202 538.658 147.202C539.339 147.202 539.955 147.365 540.506 147.692C541.066 148.019 541.504 148.481 541.822 149.078C542.139 149.666 542.298 150.352 542.298 151.136C542.298 151.911 542.139 152.601 541.822 153.208C541.504 153.815 541.066 154.286 540.506 154.622C539.955 154.958 539.339 155.126 538.658 155.126C538.004 155.126 537.426 154.981 536.922 154.692C536.427 154.393 536.049 154.025 535.788 153.586V158.64H534.514V147.328H535.788V148.742ZM540.996 151.136C540.996 150.557 540.879 150.053 540.646 149.624C540.412 149.195 540.095 148.868 539.694 148.644C539.302 148.42 538.868 148.308 538.392 148.308C537.925 148.308 537.491 148.425 537.09 148.658C536.698 148.882 536.38 149.213 536.138 149.652C535.904 150.081 535.788 150.581 535.788 151.15C535.788 151.729 535.904 152.237 536.138 152.676C536.38 153.105 536.698 153.437 537.09 153.67C537.491 153.894 537.925 154.006 538.392 154.006C538.868 154.006 539.302 153.894 539.694 153.67C540.095 153.437 540.412 153.105 540.646 152.676C540.879 152.237 540.996 151.724 540.996 151.136ZM545.248 148.742C545.5 148.303 545.874 147.939 546.368 147.65C546.872 147.351 547.456 147.202 548.118 147.202C548.8 147.202 549.416 147.365 549.966 147.692C550.526 148.019 550.965 148.481 551.282 149.078C551.6 149.666 551.758 150.352 551.758 151.136C551.758 151.911 551.6 152.601 551.282 153.208C550.965 153.815 550.526 154.286 549.966 154.622C549.416 154.958 548.8 155.126 548.118 155.126C547.465 155.126 546.886 154.981 546.382 154.692C545.888 154.393 545.51 154.025 545.248 153.586V158.64H543.974V147.328H545.248V148.742ZM550.456 151.136C550.456 150.557 550.34 150.053 550.106 149.624C549.873 149.195 549.556 148.868 549.154 148.644C548.762 148.42 548.328 148.308 547.852 148.308C547.386 148.308 546.952 148.425 546.55 148.658C546.158 148.882 545.841 149.213 545.598 149.652C545.365 150.081 545.248 150.581 545.248 151.15C545.248 151.729 545.365 152.237 545.598 152.676C545.841 153.105 546.158 153.437 546.55 153.67C546.952 153.894 547.386 154.006 547.852 154.006C548.328 154.006 548.762 153.894 549.154 153.67C549.556 153.437 549.873 153.105 550.106 152.676C550.34 152.237 550.456 151.724 550.456 151.136ZM556.781 155.126C556.063 155.126 555.409 154.963 554.821 154.636C554.243 154.309 553.785 153.847 553.449 153.25C553.123 152.643 552.959 151.943 552.959 151.15C552.959 150.366 553.127 149.675 553.463 149.078C553.809 148.471 554.275 148.009 554.863 147.692C555.451 147.365 556.109 147.202 556.837 147.202C557.565 147.202 558.223 147.365 558.811 147.692C559.399 148.009 559.861 148.467 560.197 149.064C560.543 149.661 560.715 150.357 560.715 151.15C560.715 151.943 560.538 152.643 560.183 153.25C559.838 153.847 559.367 154.309 558.769 154.636C558.172 154.963 557.509 155.126 556.781 155.126ZM556.781 154.006C557.239 154.006 557.668 153.899 558.069 153.684C558.471 153.469 558.793 153.147 559.035 152.718C559.287 152.289 559.413 151.766 559.413 151.15C559.413 150.534 559.292 150.011 559.049 149.582C558.807 149.153 558.489 148.835 558.097 148.63C557.705 148.415 557.281 148.308 556.823 148.308C556.357 148.308 555.927 148.415 555.535 148.63C555.153 148.835 554.845 149.153 554.611 149.582C554.378 150.011 554.261 150.534 554.261 151.15C554.261 151.775 554.373 152.303 554.597 152.732C554.831 153.161 555.139 153.483 555.521 153.698C555.904 153.903 556.324 154.006 556.781 154.006ZM563.665 148.574C563.889 148.135 564.206 147.795 564.617 147.552C565.037 147.309 565.545 147.188 566.143 147.188V148.504H565.807C564.379 148.504 563.665 149.279 563.665 150.828V155H562.391V147.328H563.665V148.574ZM569.167 148.378V152.9C569.167 153.273 569.246 153.539 569.405 153.698C569.564 153.847 569.839 153.922 570.231 153.922H571.169V155H570.021C569.312 155 568.78 154.837 568.425 154.51C568.07 154.183 567.893 153.647 567.893 152.9V148.378H566.899V147.328H567.893V145.396H569.167V147.328H571.169V148.378H569.167Z" fill="black"/>
<path opacity="0.3" d="M850 40C850 62.0914 832.091 80 810 80C787.909 80 770 62.0914 770 40C770 17.9086 787.909 0 810 0C832.091 0 850 17.9086 850 40ZM780.907 40C780.907 56.0675 793.932 69.0929 810 69.0929C826.068 69.0929 839.093 56.0675 839.093 40C839.093 23.9325 826.068 10.9071 810 10.9071C793.932 10.9071 780.907 23.9325 780.907 40Z" fill="#2F2E30"/>
<circle cx="810" cy="40" r="29" fill="black"/>
<path d="M798.099 50.5994L798.099 50.5992C797.226 49.9485 796.426 48.9207 795.843 47.7591C795.26 46.5974 794.917 45.3452 794.917 44.2667V31.8667C794.917 29.5075 796.671 26.9619 798.891 26.1353L798.892 26.1349L807.208 23.0184C807.208 23.0184 807.209 23.0183 807.209 23.0183C807.962 22.7367 808.962 22.5875 809.983 22.5875C811.005 22.5875 812.005 22.7367 812.758 23.0183C812.758 23.0183 812.758 23.0184 812.758 23.0184L821.075 26.1349L821.075 26.1353C823.295 26.9619 825.05 29.5075 825.05 31.8667V44.25C825.05 45.3372 824.707 46.5893 824.124 47.7484C823.542 48.9074 822.741 49.9314 821.868 50.5825L821.868 50.5827L814.701 55.9327L814.701 55.9326L814.695 55.9374C813.412 56.9265 811.724 57.4334 810 57.4334C808.277 57.4334 806.585 56.9271 805.265 55.9487C805.265 55.9486 805.265 55.9484 805.264 55.9483L798.099 50.5994ZM807.742 24.4316L807.741 24.4318L799.425 27.5485L799.424 27.5488C798.596 27.8603 797.855 28.5226 797.324 29.2907C796.793 30.0591 796.433 30.9899 796.433 31.8834V44.2667C796.433 45.1612 796.744 46.1893 797.201 47.1011C797.658 48.0127 798.293 48.8723 799.001 49.4007L799.001 49.4007L806.167 54.7504C807.229 55.5446 808.628 55.925 810.002 55.925C811.376 55.925 812.778 55.5446 813.848 54.7517L813.849 54.7507L821.016 49.4007L821.017 49.4C821.731 48.864 822.367 48.0051 822.822 47.0945C823.278 46.1838 823.583 45.1601 823.583 44.2667V31.8667C823.583 30.9805 823.223 30.0539 822.693 29.2866C822.162 28.519 821.422 27.8541 820.598 27.5339L820.598 27.5339L820.592 27.5318L812.275 24.4152L812.275 24.4151L812.266 24.4119C811.628 24.1866 810.8 24.0833 810.001 24.0854C809.202 24.0876 808.375 24.1953 807.742 24.4316Z" fill="#FAFAFA" stroke="#FAFAFA"/>
<path d="M807.413 41.0536L807.767 41.4071L808.12 41.0536L814.404 34.7703C814.692 34.4822 815.175 34.4822 815.463 34.7703C815.751 35.0583 815.751 35.5417 815.463 35.8298L808.296 42.9965C808.145 43.1478 807.958 43.2167 807.767 43.2167C807.575 43.2167 807.388 43.1478 807.237 42.9965L804.554 40.3131C804.265 40.0251 804.265 39.5417 804.554 39.2536C804.842 38.9655 805.325 38.9655 805.613 39.2536L807.413 41.0536Z" fill="#FAFAFA" stroke="#FAFAFA"/>
<path d="M698.6 111.04V125H695.8V115.92L692.06 125H689.94L686.18 115.92V125H683.38V111.04H686.56L691 121.42L695.44 111.04H698.6ZM707.848 125.14C706.542 125.14 705.342 124.833 704.248 124.22C703.155 123.607 702.288 122.76 701.648 121.68C701.008 120.587 700.688 119.353 700.688 117.98C700.688 116.62 701.008 115.4 701.648 114.32C702.288 113.227 703.155 112.373 704.248 111.76C705.342 111.147 706.542 110.84 707.848 110.84C709.168 110.84 710.368 111.147 711.448 111.76C712.542 112.373 713.402 113.227 714.028 114.32C714.668 115.4 714.988 116.62 714.988 117.98C714.988 119.353 714.668 120.587 714.028 121.68C713.402 122.76 712.542 123.607 711.448 124.22C710.355 124.833 709.155 125.14 707.848 125.14ZM707.848 122.64C708.688 122.64 709.428 122.453 710.068 122.08C710.708 121.693 711.208 121.147 711.568 120.44C711.928 119.733 712.108 118.913 712.108 117.98C712.108 117.047 711.928 116.233 711.568 115.54C711.208 114.833 710.708 114.293 710.068 113.92C709.428 113.547 708.688 113.36 707.848 113.36C707.008 113.36 706.262 113.547 705.608 113.92C704.968 114.293 704.468 114.833 704.108 115.54C703.748 116.233 703.568 117.047 703.568 117.98C703.568 118.913 703.748 119.733 704.108 120.44C704.468 121.147 704.968 121.693 705.608 122.08C706.262 122.453 707.008 122.64 707.848 122.64ZM729.011 125H726.211L719.871 115.42V125H717.071V111.02H719.871L726.211 120.62V111.02H729.011V125ZM734.578 113.3V116.8H739.278V119.02H734.578V122.72H739.878V125H731.778V111.02H739.878V113.3H734.578ZM753.523 111.04L748.803 120.14V125H746.003V120.14L741.263 111.04H744.423L747.423 117.42L750.403 111.04H753.523ZM767.823 117.84C768.61 117.987 769.257 118.38 769.763 119.02C770.27 119.66 770.523 120.393 770.523 121.22C770.523 121.967 770.337 122.627 769.963 123.2C769.603 123.76 769.077 124.2 768.383 124.52C767.69 124.84 766.87 125 765.923 125H759.903V111.04H765.663C766.61 111.04 767.423 111.193 768.103 111.5C768.797 111.807 769.317 112.233 769.663 112.78C770.023 113.327 770.203 113.947 770.203 114.64C770.203 115.453 769.983 116.133 769.543 116.68C769.117 117.227 768.543 117.613 767.823 117.84ZM762.703 116.8H765.263C765.93 116.8 766.443 116.653 766.803 116.36C767.163 116.053 767.343 115.62 767.343 115.06C767.343 114.5 767.163 114.067 766.803 113.76C766.443 113.453 765.93 113.3 765.263 113.3H762.703V116.8ZM765.523 122.72C766.203 122.72 766.73 122.56 767.103 122.24C767.49 121.92 767.683 121.467 767.683 120.88C767.683 120.28 767.483 119.813 767.083 119.48C766.683 119.133 766.143 118.96 765.463 118.96H762.703V122.72H765.523ZM781.315 122.34H775.755L774.835 125H771.895L776.915 111.02H780.175L785.195 125H782.235L781.315 122.34ZM780.555 120.1L778.535 114.26L776.515 120.1H780.555ZM786.391 118C786.391 116.627 786.698 115.4 787.311 114.32C787.938 113.227 788.785 112.38 789.851 111.78C790.931 111.167 792.138 110.86 793.471 110.86C795.031 110.86 796.398 111.26 797.571 112.06C798.745 112.86 799.565 113.967 800.031 115.38H796.811C796.491 114.713 796.038 114.213 795.451 113.88C794.878 113.547 794.211 113.38 793.451 113.38C792.638 113.38 791.911 113.573 791.271 113.96C790.645 114.333 790.151 114.867 789.791 115.56C789.445 116.253 789.271 117.067 789.271 118C789.271 118.92 789.445 119.733 789.791 120.44C790.151 121.133 790.645 121.673 791.271 122.06C791.911 122.433 792.638 122.62 793.451 122.62C794.211 122.62 794.878 122.453 795.451 122.12C796.038 121.773 796.491 121.267 796.811 120.6H800.031C799.565 122.027 798.745 123.14 797.571 123.94C796.411 124.727 795.045 125.12 793.471 125.12C792.138 125.12 790.931 124.82 789.851 124.22C788.785 123.607 787.938 122.76 787.311 121.68C786.698 120.6 786.391 119.373 786.391 118ZM810.303 125L805.223 118.78V125H802.423V111.04H805.223V117.3L810.303 111.04H813.683L807.923 117.96L813.843 125H810.303ZM830.17 115.24C829.85 114.653 829.41 114.207 828.85 113.9C828.29 113.593 827.637 113.44 826.89 113.44C826.064 113.44 825.33 113.627 824.69 114C824.05 114.373 823.55 114.907 823.19 115.6C822.83 116.293 822.65 117.093 822.65 118C822.65 118.933 822.83 119.747 823.19 120.44C823.564 121.133 824.077 121.667 824.73 122.04C825.384 122.413 826.144 122.6 827.01 122.6C828.077 122.6 828.95 122.32 829.63 121.76C830.31 121.187 830.757 120.393 830.97 119.38H826.17V117.24H833.73V119.68C833.544 120.653 833.144 121.553 832.53 122.38C831.917 123.207 831.124 123.873 830.15 124.38C829.19 124.873 828.11 125.12 826.91 125.12C825.564 125.12 824.344 124.82 823.25 124.22C822.17 123.607 821.317 122.76 820.69 121.68C820.077 120.6 819.77 119.373 819.77 118C819.77 116.627 820.077 115.4 820.69 114.32C821.317 113.227 822.17 112.38 823.25 111.78C824.344 111.167 825.557 110.86 826.89 110.86C828.464 110.86 829.83 111.247 830.99 112.02C832.15 112.78 832.95 113.853 833.39 115.24H830.17ZM838.562 111.04V119.68C838.562 120.627 838.809 121.353 839.302 121.86C839.795 122.353 840.489 122.6 841.382 122.6C842.289 122.6 842.989 122.353 843.482 121.86C843.975 121.353 844.222 120.627 844.222 119.68V111.04H847.042V119.66C847.042 120.847 846.782 121.853 846.262 122.68C845.755 123.493 845.069 124.107 844.202 124.52C843.349 124.933 842.395 125.14 841.342 125.14C840.302 125.14 839.355 124.933 838.502 124.52C837.662 124.107 836.995 123.493 836.502 122.68C836.009 121.853 835.762 120.847 835.762 119.66V111.04H838.562ZM858.307 122.34H852.747L851.827 125H848.887L853.907 111.02H857.167L862.187 125H859.227L858.307 122.34ZM857.547 120.1L855.527 114.26L853.507 120.1H857.547ZM871.264 125L868.184 119.56H866.864V125H864.064V111.04H869.304C870.384 111.04 871.304 111.233 872.064 111.62C872.824 111.993 873.39 112.507 873.764 113.16C874.15 113.8 874.344 114.52 874.344 115.32C874.344 116.24 874.077 117.073 873.544 117.82C873.01 118.553 872.217 119.06 871.164 119.34L874.504 125H871.264ZM866.864 117.46H869.204C869.964 117.46 870.53 117.28 870.904 116.92C871.277 116.547 871.464 116.033 871.464 115.38C871.464 114.74 871.277 114.247 870.904 113.9C870.53 113.54 869.964 113.36 869.204 113.36H866.864V117.46ZM885.436 122.34H879.876L878.956 125H876.016L881.036 111.02H884.296L889.316 125H886.356L885.436 122.34ZM884.676 120.1L882.656 114.26L880.636 120.1H884.676ZM903.133 125H900.333L893.993 115.42V125H891.193V111.02H893.993L900.333 120.62V111.02H903.133V125ZM915.4 111.04V113.3H911.68V125H908.88V113.3H905.16V111.04H915.4ZM920.243 113.3V116.8H924.943V119.02H920.243V122.72H925.543V125H917.443V111.02H925.543V113.3H920.243ZM930.887 113.3V116.8H935.587V119.02H930.887V122.72H936.187V125H928.087V111.02H936.187V113.3H930.887Z" fill="black"/>
<path d="M713.342 145.242L710.514 155H709.086L706.818 147.146L704.466 155L703.052 155.014L700.322 145.242H701.68L703.808 153.516L706.16 145.242H707.588L709.828 153.488L711.97 145.242H713.342ZM721.736 150.87C721.736 151.113 721.722 151.369 721.694 151.64H715.562C715.609 152.396 715.866 152.989 716.332 153.418C716.808 153.838 717.382 154.048 718.054 154.048C718.605 154.048 719.062 153.922 719.426 153.67C719.8 153.409 720.061 153.063 720.21 152.634H721.582C721.377 153.371 720.966 153.973 720.35 154.44C719.734 154.897 718.969 155.126 718.054 155.126C717.326 155.126 716.673 154.963 716.094 154.636C715.525 154.309 715.077 153.847 714.75 153.25C714.424 152.643 714.26 151.943 714.26 151.15C714.26 150.357 714.419 149.661 714.736 149.064C715.054 148.467 715.497 148.009 716.066 147.692C716.645 147.365 717.308 147.202 718.054 147.202C718.782 147.202 719.426 147.361 719.986 147.678C720.546 147.995 720.976 148.434 721.274 148.994C721.582 149.545 721.736 150.17 721.736 150.87ZM720.42 150.604C720.42 150.119 720.313 149.703 720.098 149.358C719.884 149.003 719.59 148.737 719.216 148.56C718.852 148.373 718.446 148.28 717.998 148.28C717.354 148.28 716.804 148.485 716.346 148.896C715.898 149.307 715.642 149.876 715.576 150.604H720.42ZM728.424 148.574C728.648 148.135 728.966 147.795 729.376 147.552C729.796 147.309 730.305 147.188 730.902 147.188V148.504H730.566C729.138 148.504 728.424 149.279 728.424 150.828V155H727.15V147.328H728.424V148.574ZM739.373 150.87C739.373 151.113 739.359 151.369 739.331 151.64H733.199C733.246 152.396 733.502 152.989 733.969 153.418C734.445 153.838 735.019 154.048 735.691 154.048C736.242 154.048 736.699 153.922 737.063 153.67C737.436 153.409 737.698 153.063 737.847 152.634H739.219C739.014 153.371 738.603 153.973 737.987 154.44C737.371 154.897 736.606 155.126 735.691 155.126C734.963 155.126 734.31 154.963 733.731 154.636C733.162 154.309 732.714 153.847 732.387 153.25C732.06 152.643 731.897 151.943 731.897 151.15C731.897 150.357 732.056 149.661 732.373 149.064C732.69 148.467 733.134 148.009 733.703 147.692C734.282 147.365 734.944 147.202 735.691 147.202C736.419 147.202 737.063 147.361 737.623 147.678C738.183 147.995 738.612 148.434 738.911 148.994C739.219 149.545 739.373 150.17 739.373 150.87ZM738.057 150.604C738.057 150.119 737.95 149.703 737.735 149.358C737.52 149.003 737.226 148.737 736.853 148.56C736.489 148.373 736.083 148.28 735.635 148.28C734.991 148.28 734.44 148.485 733.983 148.896C733.535 149.307 733.278 149.876 733.213 150.604H738.057ZM747.859 147.328V155H746.585V153.866C746.342 154.258 746.001 154.566 745.563 154.79C745.133 155.005 744.657 155.112 744.135 155.112C743.537 155.112 743.001 154.991 742.525 154.748C742.049 154.496 741.671 154.123 741.391 153.628C741.12 153.133 740.985 152.531 740.985 151.822V147.328H742.245V151.654C742.245 152.41 742.436 152.993 742.819 153.404C743.201 153.805 743.724 154.006 744.387 154.006C745.068 154.006 745.605 153.796 745.997 153.376C746.389 152.956 746.585 152.345 746.585 151.542V147.328H747.859ZM751.284 148.574C751.508 148.135 751.825 147.795 752.236 147.552C752.656 147.309 753.164 147.188 753.762 147.188V148.504H753.426C751.998 148.504 751.284 149.279 751.284 150.828V155H750.01V147.328H751.284V148.574ZM758.97 147.188C759.904 147.188 760.66 147.473 761.238 148.042C761.817 148.602 762.106 149.414 762.106 150.478V155H760.846V150.66C760.846 149.895 760.655 149.311 760.272 148.91C759.89 148.499 759.367 148.294 758.704 148.294C758.032 148.294 757.496 148.504 757.094 148.924C756.702 149.344 756.506 149.955 756.506 150.758V155H755.232V147.328H756.506V148.42C756.758 148.028 757.099 147.725 757.528 147.51C757.967 147.295 758.448 147.188 758.97 147.188ZM777.146 147.188C777.743 147.188 778.275 147.314 778.742 147.566C779.208 147.809 779.577 148.177 779.848 148.672C780.118 149.167 780.254 149.769 780.254 150.478V155H778.994V150.66C778.994 149.895 778.802 149.311 778.42 148.91C778.046 148.499 777.538 148.294 776.894 148.294C776.231 148.294 775.704 148.509 775.312 148.938C774.92 149.358 774.724 149.969 774.724 150.772V155H773.464V150.66C773.464 149.895 773.272 149.311 772.89 148.91C772.516 148.499 772.008 148.294 771.364 148.294C770.701 148.294 770.174 148.509 769.782 148.938C769.39 149.358 769.194 149.969 769.194 150.772V155H767.92V147.328H769.194V148.434C769.446 148.033 769.782 147.725 770.202 147.51C770.631 147.295 771.102 147.188 771.616 147.188C772.26 147.188 772.829 147.333 773.324 147.622C773.818 147.911 774.187 148.336 774.43 148.896C774.644 148.355 774.999 147.935 775.494 147.636C775.988 147.337 776.539 147.188 777.146 147.188ZM785.69 155.126C784.971 155.126 784.318 154.963 783.73 154.636C783.151 154.309 782.694 153.847 782.358 153.25C782.031 152.643 781.868 151.943 781.868 151.15C781.868 150.366 782.036 149.675 782.372 149.078C782.717 148.471 783.184 148.009 783.772 147.692C784.36 147.365 785.018 147.202 785.746 147.202C786.474 147.202 787.132 147.365 787.72 147.692C788.308 148.009 788.77 148.467 789.106 149.064C789.451 149.661 789.624 150.357 789.624 151.15C789.624 151.943 789.446 152.643 789.092 153.25C788.746 153.847 788.275 154.309 787.678 154.636C787.08 154.963 786.418 155.126 785.69 155.126ZM785.69 154.006C786.147 154.006 786.576 153.899 786.978 153.684C787.379 153.469 787.701 153.147 787.944 152.718C788.196 152.289 788.322 151.766 788.322 151.15C788.322 150.534 788.2 150.011 787.958 149.582C787.715 149.153 787.398 148.835 787.006 148.63C786.614 148.415 786.189 148.308 785.732 148.308C785.265 148.308 784.836 148.415 784.444 148.63C784.061 148.835 783.753 149.153 783.52 149.582C783.286 150.011 783.17 150.534 783.17 151.15C783.17 151.775 783.282 152.303 783.506 152.732C783.739 153.161 784.047 153.483 784.43 153.698C784.812 153.903 785.232 154.006 785.69 154.006ZM795.037 147.188C795.97 147.188 796.726 147.473 797.305 148.042C797.883 148.602 798.173 149.414 798.173 150.478V155H796.913V150.66C796.913 149.895 796.721 149.311 796.339 148.91C795.956 148.499 795.433 148.294 794.771 148.294C794.099 148.294 793.562 148.504 793.161 148.924C792.769 149.344 792.573 149.955 792.573 150.758V155H791.299V147.328H792.573V148.42C792.825 148.028 793.165 147.725 793.595 147.51C794.033 147.295 794.514 147.188 795.037 147.188ZM807.254 150.87C807.254 151.113 807.24 151.369 807.212 151.64H801.08C801.126 152.396 801.383 152.989 801.85 153.418C802.326 153.838 802.9 154.048 803.572 154.048C804.122 154.048 804.58 153.922 804.944 153.67C805.317 153.409 805.578 153.063 805.728 152.634H807.1C806.894 153.371 806.484 153.973 805.868 154.44C805.252 154.897 804.486 155.126 803.572 155.126C802.844 155.126 802.19 154.963 801.612 154.636C801.042 154.309 800.594 153.847 800.268 153.25C799.941 152.643 799.778 151.943 799.778 151.15C799.778 150.357 799.936 149.661 800.254 149.064C800.571 148.467 801.014 148.009 801.584 147.692C802.162 147.365 802.825 147.202 803.572 147.202C804.3 147.202 804.944 147.361 805.504 147.678C806.064 147.995 806.493 148.434 806.792 148.994C807.1 149.545 807.254 150.17 807.254 150.87ZM805.938 150.604C805.938 150.119 805.83 149.703 805.616 149.358C805.401 149.003 805.107 148.737 804.734 148.56C804.37 148.373 803.964 148.28 803.516 148.28C802.872 148.28 802.321 148.485 801.864 148.896C801.416 149.307 801.159 149.876 801.094 150.604H805.938ZM815.543 147.328L810.923 158.612H809.607L811.119 154.916L808.025 147.328H809.439L811.847 153.544L814.227 147.328H815.543ZM830.777 147.328L828.383 155H827.067L825.219 148.91L823.371 155H822.055L819.647 147.328H820.949L822.713 153.768L824.617 147.328H825.919L827.781 153.782L829.517 147.328H830.777ZM832.699 146.082C832.456 146.082 832.251 145.998 832.083 145.83C831.915 145.662 831.831 145.457 831.831 145.214C831.831 144.971 831.915 144.766 832.083 144.598C832.251 144.43 832.456 144.346 832.699 144.346C832.932 144.346 833.128 144.43 833.287 144.598C833.455 144.766 833.539 144.971 833.539 145.214C833.539 145.457 833.455 145.662 833.287 145.83C833.128 145.998 832.932 146.082 832.699 146.082ZM833.315 147.328V155H832.041V147.328H833.315ZM837.04 148.378V152.9C837.04 153.273 837.12 153.539 837.278 153.698C837.437 153.847 837.712 153.922 838.104 153.922H839.042V155H837.894C837.185 155 836.653 154.837 836.298 154.51C835.944 154.183 835.766 153.647 835.766 152.9V148.378H834.772V147.328H835.766V145.396H837.04V147.328H839.042V148.378H837.04ZM844.394 147.188C844.972 147.188 845.495 147.314 845.962 147.566C846.428 147.809 846.792 148.177 847.054 148.672C847.324 149.167 847.46 149.769 847.46 150.478V155H846.2V150.66C846.2 149.895 846.008 149.311 845.626 148.91C845.243 148.499 844.72 148.294 844.058 148.294C843.386 148.294 842.849 148.504 842.448 148.924C842.056 149.344 841.86 149.955 841.86 150.758V155H840.586V144.64H841.86V148.42C842.112 148.028 842.457 147.725 842.896 147.51C843.344 147.295 843.843 147.188 844.394 147.188ZM850.199 146.082C849.956 146.082 849.751 145.998 849.583 145.83C849.415 145.662 849.331 145.457 849.331 145.214C849.331 144.971 849.415 144.766 849.583 144.598C849.751 144.43 849.956 144.346 850.199 144.346C850.432 144.346 850.628 144.43 850.787 144.598C850.955 144.766 851.039 144.971 851.039 145.214C851.039 145.457 850.955 145.662 850.787 145.83C850.628 145.998 850.432 146.082 850.199 146.082ZM850.815 147.328V155H849.541V147.328H850.815ZM856.724 147.188C857.658 147.188 858.414 147.473 858.992 148.042C859.571 148.602 859.86 149.414 859.86 150.478V155H858.6V150.66C858.6 149.895 858.409 149.311 858.026 148.91C857.644 148.499 857.121 148.294 856.458 148.294C855.786 148.294 855.25 148.504 854.848 148.924C854.456 149.344 854.26 149.955 854.26 150.758V155H852.986V147.328H854.26V148.42C854.512 148.028 854.853 147.725 855.282 147.51C855.721 147.295 856.202 147.188 856.724 147.188ZM865.436 147.426C865.501 146.567 865.832 145.895 866.43 145.41C867.027 144.925 867.802 144.682 868.754 144.682C869.388 144.682 869.934 144.799 870.392 145.032C870.858 145.256 871.208 145.564 871.442 145.956C871.684 146.348 871.806 146.791 871.806 147.286C871.806 147.865 871.638 148.364 871.302 148.784C870.975 149.204 870.546 149.475 870.014 149.596V149.666C870.62 149.815 871.101 150.109 871.456 150.548C871.81 150.987 871.988 151.561 871.988 152.27C871.988 152.802 871.866 153.283 871.624 153.712C871.381 154.132 871.017 154.463 870.532 154.706C870.046 154.949 869.463 155.07 868.782 155.07C867.792 155.07 866.98 154.813 866.346 154.3C865.711 153.777 865.356 153.04 865.282 152.088H866.514C866.579 152.648 866.808 153.105 867.2 153.46C867.592 153.815 868.114 153.992 868.768 153.992C869.421 153.992 869.916 153.824 870.252 153.488C870.597 153.143 870.77 152.699 870.77 152.158C870.77 151.458 870.536 150.954 870.07 150.646C869.603 150.338 868.898 150.184 867.956 150.184H867.634V149.12H867.97C868.828 149.111 869.477 148.971 869.916 148.7C870.354 148.42 870.574 147.991 870.574 147.412C870.574 146.917 870.41 146.521 870.084 146.222C869.766 145.923 869.309 145.774 868.712 145.774C868.133 145.774 867.666 145.923 867.312 146.222C866.957 146.521 866.747 146.922 866.682 147.426H865.436ZM873.708 149.834C873.708 148.229 873.969 146.978 874.492 146.082C875.015 145.177 875.929 144.724 877.236 144.724C878.533 144.724 879.443 145.177 879.966 146.082C880.489 146.978 880.75 148.229 880.75 149.834C880.75 151.467 880.489 152.737 879.966 153.642C879.443 154.547 878.533 155 877.236 155C875.929 155 875.015 154.547 874.492 153.642C873.969 152.737 873.708 151.467 873.708 149.834ZM879.49 149.834C879.49 149.022 879.434 148.336 879.322 147.776C879.219 147.207 879 146.749 878.664 146.404C878.337 146.059 877.861 145.886 877.236 145.886C876.601 145.886 876.116 146.059 875.78 146.404C875.453 146.749 875.234 147.207 875.122 147.776C875.019 148.336 874.968 149.022 874.968 149.834C874.968 150.674 875.019 151.379 875.122 151.948C875.234 152.517 875.453 152.975 875.78 153.32C876.116 153.665 876.601 153.838 877.236 153.838C877.861 153.838 878.337 153.665 878.664 153.32C879 152.975 879.219 152.517 879.322 151.948C879.434 151.379 879.49 150.674 879.49 149.834ZM885.965 151.136C885.965 150.352 886.124 149.666 886.441 149.078C886.759 148.481 887.193 148.019 887.743 147.692C888.303 147.365 888.929 147.202 889.619 147.202C890.217 147.202 890.772 147.342 891.285 147.622C891.799 147.893 892.191 148.252 892.461 148.7V144.64H893.749V155H892.461V153.558C892.209 154.015 891.836 154.393 891.341 154.692C890.847 154.981 890.268 155.126 889.605 155.126C888.924 155.126 888.303 154.958 887.743 154.622C887.193 154.286 886.759 153.815 886.441 153.208C886.124 152.601 885.965 151.911 885.965 151.136ZM892.461 151.15C892.461 150.571 892.345 150.067 892.111 149.638C891.878 149.209 891.561 148.882 891.159 148.658C890.767 148.425 890.333 148.308 889.857 148.308C889.381 148.308 888.947 148.42 888.555 148.644C888.163 148.868 887.851 149.195 887.617 149.624C887.384 150.053 887.267 150.557 887.267 151.136C887.267 151.724 887.384 152.237 887.617 152.676C887.851 153.105 888.163 153.437 888.555 153.67C888.947 153.894 889.381 154.006 889.857 154.006C890.333 154.006 890.767 153.894 891.159 153.67C891.561 153.437 891.878 153.105 892.111 152.676C892.345 152.237 892.461 151.729 892.461 151.15ZM895.426 151.136C895.426 150.352 895.585 149.666 895.902 149.078C896.22 148.481 896.654 148.019 897.204 147.692C897.764 147.365 898.385 147.202 899.066 147.202C899.738 147.202 900.322 147.347 900.816 147.636C901.311 147.925 901.68 148.289 901.922 148.728V147.328H903.21V155H901.922V153.572C901.67 154.02 901.292 154.393 900.788 154.692C900.294 154.981 899.715 155.126 899.052 155.126C898.371 155.126 897.755 154.958 897.204 154.622C896.654 154.286 896.22 153.815 895.902 153.208C895.585 152.601 895.426 151.911 895.426 151.136ZM901.922 151.15C901.922 150.571 901.806 150.067 901.572 149.638C901.339 149.209 901.022 148.882 900.62 148.658C900.228 148.425 899.794 148.308 899.318 148.308C898.842 148.308 898.408 148.42 898.016 148.644C897.624 148.868 897.312 149.195 897.078 149.624C896.845 150.053 896.728 150.557 896.728 151.136C896.728 151.724 896.845 152.237 897.078 152.676C897.312 153.105 897.624 153.437 898.016 153.67C898.408 153.894 898.842 154.006 899.318 154.006C899.794 154.006 900.228 153.894 900.62 153.67C901.022 153.437 901.339 153.105 901.572 152.676C901.806 152.237 901.922 151.729 901.922 151.15ZM911.971 147.328L907.351 158.612H906.035L907.547 154.916L904.453 147.328H905.867L908.275 153.544L910.655 147.328H911.971ZM915.968 155.126C915.38 155.126 914.852 155.028 914.386 154.832C913.919 154.627 913.55 154.347 913.28 153.992C913.009 153.628 912.86 153.213 912.832 152.746H914.148C914.185 153.129 914.362 153.441 914.68 153.684C915.006 153.927 915.431 154.048 915.954 154.048C916.439 154.048 916.822 153.941 917.102 153.726C917.382 153.511 917.522 153.241 917.522 152.914C917.522 152.578 917.372 152.331 917.074 152.172C916.775 152.004 916.313 151.841 915.688 151.682C915.118 151.533 914.652 151.383 914.288 151.234C913.933 151.075 913.625 150.847 913.364 150.548C913.112 150.24 912.986 149.839 912.986 149.344C912.986 148.952 913.102 148.593 913.336 148.266C913.569 147.939 913.9 147.683 914.33 147.496C914.759 147.3 915.249 147.202 915.8 147.202C916.649 147.202 917.335 147.417 917.858 147.846C918.38 148.275 918.66 148.863 918.698 149.61H917.424C917.396 149.209 917.232 148.887 916.934 148.644C916.644 148.401 916.252 148.28 915.758 148.28C915.3 148.28 914.936 148.378 914.666 148.574C914.395 148.77 914.26 149.027 914.26 149.344C914.26 149.596 914.339 149.806 914.498 149.974C914.666 150.133 914.871 150.263 915.114 150.366C915.366 150.459 915.711 150.567 916.15 150.688C916.7 150.837 917.148 150.987 917.494 151.136C917.839 151.276 918.133 151.491 918.376 151.78C918.628 152.069 918.758 152.447 918.768 152.914C918.768 153.334 918.651 153.712 918.418 154.048C918.184 154.384 917.853 154.65 917.424 154.846C917.004 155.033 916.518 155.126 915.968 155.126Z" fill="black"/>
<defs>
<clipPath id="clip0_31_90">
<rect width="40" height="40" fill="white" transform="translate(102 20)"/>
</clipPath>
<clipPath id="clip1_31_90">
<rect width="40" height="40" fill="white" transform="translate(443 20)"/>
</clipPath>
</defs>
</svg>
