<svg width="189" height="56" viewBox="0 0 189 56" fill="none" xmlns="http://www.w3.org/2000/svg">
<rect width="189" height="56" rx="4" fill="url(#paint0_radial_148_1444)"/>
<path d="M55.904 31.728H51.248L50.448 34H48.544L52.528 22.864H54.64L58.624 34H56.704L55.904 31.728ZM55.392 30.24L53.584 25.072L51.76 30.24H55.392ZM59.7483 29.552C59.7483 28.6667 59.9296 27.8827 60.2923 27.2C60.6656 26.5173 61.1669 25.9893 61.7963 25.616C62.4363 25.232 63.1456 25.04 63.9243 25.04C64.5003 25.04 65.0656 25.168 65.6203 25.424C66.1856 25.6693 66.6336 26 66.9643 26.416V22.16H68.8043V34H66.9643V32.672C66.6656 33.0987 66.2496 33.4507 65.7163 33.728C65.1936 34.0053 64.5909 34.144 63.9083 34.144C63.1403 34.144 62.4363 33.952 61.7963 33.568C61.1669 33.1733 60.6656 32.6293 60.2923 31.936C59.9296 31.232 59.7483 30.4373 59.7483 29.552ZM66.9643 29.584C66.9643 28.976 66.8363 28.448 66.5803 28C66.3349 27.552 66.0096 27.2107 65.6043 26.976C65.1989 26.7413 64.7616 26.624 64.2923 26.624C63.8229 26.624 63.3856 26.7413 62.9803 26.976C62.5749 27.2 62.2443 27.536 61.9883 27.984C61.7429 28.4213 61.6203 28.944 61.6203 29.552C61.6203 30.16 61.7429 30.6933 61.9883 31.152C62.2443 31.6107 62.5749 31.9627 62.9803 32.208C63.3963 32.4427 63.8336 32.56 64.2923 32.56C64.7616 32.56 65.1989 32.4427 65.6043 32.208C66.0096 31.9733 66.3349 31.632 66.5803 31.184C66.8363 30.7253 66.9643 30.192 66.9643 29.584ZM70.592 29.552C70.592 28.6667 70.7733 27.8827 71.136 27.2C71.5093 26.5173 72.0107 25.9893 72.64 25.616C73.28 25.232 73.9893 25.04 74.768 25.04C75.344 25.04 75.9093 25.168 76.464 25.424C77.0293 25.6693 77.4773 26 77.808 26.416V22.16H79.648V34H77.808V32.672C77.5093 33.0987 77.0933 33.4507 76.56 33.728C76.0373 34.0053 75.4347 34.144 74.752 34.144C73.984 34.144 73.28 33.952 72.64 33.568C72.0107 33.1733 71.5093 32.6293 71.136 31.936C70.7733 31.232 70.592 30.4373 70.592 29.552ZM77.808 29.584C77.808 28.976 77.68 28.448 77.424 28C77.1787 27.552 76.8533 27.2107 76.448 26.976C76.0427 26.7413 75.6053 26.624 75.136 26.624C74.6667 26.624 74.2293 26.7413 73.824 26.976C73.4187 27.2 73.088 27.536 72.832 27.984C72.5867 28.4213 72.464 28.944 72.464 29.552C72.464 30.16 72.5867 30.6933 72.832 31.152C73.088 31.6107 73.4187 31.9627 73.824 32.208C74.24 32.4427 74.6773 32.56 75.136 32.56C75.6053 32.56 76.0427 32.4427 76.448 32.208C76.8533 31.9733 77.1787 31.632 77.424 31.184C77.68 30.7253 77.808 30.192 77.808 29.584ZM88.328 26.672V31.552C88.328 31.8827 88.4027 32.1227 88.552 32.272C88.712 32.4107 88.9787 32.48 89.352 32.48H90.472V34H89.032C88.2107 34 87.5813 33.808 87.144 33.424C86.7067 33.04 86.488 32.416 86.488 31.552V26.672H85.448V25.184H86.488V22.992H88.328V25.184H90.472V26.672H88.328ZM95.9771 34.144C95.1451 34.144 94.3931 33.9573 93.7211 33.584C93.0491 33.2 92.5211 32.6667 92.1371 31.984C91.7531 31.2907 91.5611 30.4907 91.5611 29.584C91.5611 28.688 91.7585 27.8933 92.1531 27.2C92.5478 26.5067 93.0865 25.9733 93.7691 25.6C94.4518 25.2267 95.2145 25.04 96.0571 25.04C96.8998 25.04 97.6625 25.2267 98.3451 25.6C99.0278 25.9733 99.5665 26.5067 99.9611 27.2C100.356 27.8933 100.553 28.688 100.553 29.584C100.553 30.48 100.35 31.2747 99.9451 31.968C99.5398 32.6613 98.9851 33.2 98.2811 33.584C97.5878 33.9573 96.8198 34.144 95.9771 34.144ZM95.9771 32.56C96.4465 32.56 96.8838 32.448 97.2891 32.224C97.7051 32 98.0411 31.664 98.2971 31.216C98.5531 30.768 98.6811 30.224 98.6811 29.584C98.6811 28.944 98.5585 28.4053 98.3131 27.968C98.0678 27.52 97.7425 27.184 97.3371 26.96C96.9318 26.736 96.4945 26.624 96.0251 26.624C95.5558 26.624 95.1185 26.736 94.7131 26.96C94.3185 27.184 94.0038 27.52 93.7691 27.968C93.5345 28.4053 93.4171 28.944 93.4171 29.584C93.4171 30.5333 93.6571 31.2693 94.1371 31.792C94.6278 32.304 95.2411 32.56 95.9771 32.56ZM105.905 28.416C105.905 27.328 106.155 26.352 106.657 25.488C107.169 24.624 107.857 23.952 108.721 23.472C109.595 22.9813 110.55 22.736 111.585 22.736C112.769 22.736 113.819 23.0293 114.737 23.616C115.665 24.192 116.337 25.0133 116.753 26.08H114.561C114.273 25.4933 113.873 25.056 113.361 24.768C112.849 24.48 112.257 24.336 111.585 24.336C110.849 24.336 110.193 24.5013 109.617 24.832C109.041 25.1627 108.587 25.6373 108.257 26.256C107.937 26.8747 107.777 27.5947 107.777 28.416C107.777 29.2373 107.937 29.9573 108.257 30.576C108.587 31.1947 109.041 31.6747 109.617 32.016C110.193 32.3467 110.849 32.512 111.585 32.512C112.257 32.512 112.849 32.368 113.361 32.08C113.873 31.792 114.273 31.3547 114.561 30.768H116.753C116.337 31.8347 115.665 32.656 114.737 33.232C113.819 33.808 112.769 34.096 111.585 34.096C110.539 34.096 109.585 33.856 108.721 33.376C107.857 32.8853 107.169 32.208 106.657 31.344C106.155 30.48 105.905 29.504 105.905 28.416ZM118.28 29.552C118.28 28.6667 118.461 27.8827 118.824 27.2C119.197 26.5173 119.698 25.9893 120.328 25.616C120.968 25.232 121.672 25.04 122.44 25.04C123.133 25.04 123.736 25.1787 124.248 25.456C124.77 25.7227 125.186 26.0587 125.496 26.464V25.184H127.336V34H125.496V32.688C125.186 33.104 124.765 33.4507 124.232 33.728C123.698 34.0053 123.09 34.144 122.408 34.144C121.65 34.144 120.957 33.952 120.328 33.568C119.698 33.1733 119.197 32.6293 118.824 31.936C118.461 31.232 118.28 30.4373 118.28 29.552ZM125.496 29.584C125.496 28.976 125.368 28.448 125.112 28C124.866 27.552 124.541 27.2107 124.136 26.976C123.73 26.7413 123.293 26.624 122.824 26.624C122.354 26.624 121.917 26.7413 121.512 26.976C121.106 27.2 120.776 27.536 120.52 27.984C120.274 28.4213 120.152 28.944 120.152 29.552C120.152 30.16 120.274 30.6933 120.52 31.152C120.776 31.6107 121.106 31.9627 121.512 32.208C121.928 32.4427 122.365 32.56 122.824 32.56C123.293 32.56 123.73 32.4427 124.136 32.208C124.541 31.9733 124.866 31.632 125.112 31.184C125.368 30.7253 125.496 30.192 125.496 29.584ZM131.555 26.464C131.822 26.016 132.174 25.6693 132.611 25.424C133.059 25.168 133.587 25.04 134.195 25.04V26.928H133.731C133.017 26.928 132.473 27.1093 132.099 27.472C131.737 27.8347 131.555 28.464 131.555 29.36V34H129.731V25.184H131.555V26.464ZM138 26.672V31.552C138 31.8827 138.075 32.1227 138.224 32.272C138.384 32.4107 138.651 32.48 139.024 32.48H140.144V34H138.704C137.883 34 137.253 33.808 136.816 33.424C136.379 33.04 136.16 32.416 136.16 31.552V26.672H135.12V25.184H136.16V22.992H138V25.184H140.144V26.672H138Z" fill="#FAFAFA"/>
<defs>
<radialGradient id="paint0_radial_148_1444" cx="0" cy="0" r="1" gradientUnits="userSpaceOnUse" gradientTransform="translate(94.5 28) scale(94.5 28)">
<stop stop-color="#DB4444"/>
<stop offset="0.265" stop-color="#A83434"/>
<stop offset="1" stop-color="#752424"/>
</radialGradient>
</defs>
</svg>
