<svg width="184" height="56" viewBox="0 0 184 56" fill="none" xmlns="http://www.w3.org/2000/svg">
<rect width="184" height="56" rx="4" fill="url(#paint0_radial_134_1422)"/>
<path d="M52.864 34.112C52.1173 34.112 51.4453 33.984 50.848 33.728C50.2507 33.4613 49.7813 33.088 49.44 32.608C49.0987 32.128 48.928 31.568 48.928 30.928H50.88C50.9227 31.408 51.1093 31.8027 51.44 32.112C51.7813 32.4213 52.256 32.576 52.864 32.576C53.4933 32.576 53.984 32.4267 54.336 32.128C54.688 31.8187 54.864 31.424 54.864 30.944C54.864 30.5707 54.752 30.2667 54.528 30.032C54.3147 29.7973 54.0427 29.616 53.712 29.488C53.392 29.36 52.944 29.2213 52.368 29.072C51.6427 28.88 51.0507 28.688 50.592 28.496C50.144 28.2933 49.76 27.984 49.44 27.568C49.12 27.152 48.96 26.5973 48.96 25.904C48.96 25.264 49.12 24.704 49.44 24.224C49.76 23.744 50.208 23.376 50.784 23.12C51.36 22.864 52.0267 22.736 52.784 22.736C53.8613 22.736 54.7413 23.008 55.424 23.552C56.1173 24.0853 56.5013 24.8213 56.576 25.76H54.56C54.528 25.3547 54.336 25.008 53.984 24.72C53.632 24.432 53.168 24.288 52.592 24.288C52.0693 24.288 51.6427 24.4213 51.312 24.688C50.9813 24.9547 50.816 25.3387 50.816 25.84C50.816 26.1813 50.9173 26.464 51.12 26.688C51.3333 26.9013 51.6 27.072 51.92 27.2C52.24 27.328 52.6773 27.4667 53.232 27.616C53.968 27.8187 54.5653 28.0213 55.024 28.224C55.4933 28.4267 55.888 28.7413 56.208 29.168C56.5387 29.584 56.704 30.144 56.704 30.848C56.704 31.4133 56.5493 31.9467 56.24 32.448C55.9413 32.9493 55.4987 33.3547 54.912 33.664C54.336 33.9627 53.6533 34.112 52.864 34.112ZM67.7363 22.88V34H65.9123V29.136H60.6803V34H58.8563V22.88H60.6803V27.648H65.9123V22.88H67.7363ZM75.2095 34.112C74.1748 34.112 73.2202 33.872 72.3455 33.392C71.4815 32.9013 70.7935 32.224 70.2815 31.36C69.7802 30.4853 69.5295 29.504 69.5295 28.416C69.5295 27.328 69.7802 26.352 70.2815 25.488C70.7935 24.624 71.4815 23.952 72.3455 23.472C73.2202 22.9813 74.1748 22.736 75.2095 22.736C76.2548 22.736 77.2095 22.9813 78.0735 23.472C78.9482 23.952 79.6362 24.624 80.1375 25.488C80.6388 26.352 80.8895 27.328 80.8895 28.416C80.8895 29.504 80.6388 30.4853 80.1375 31.36C79.6362 32.224 78.9482 32.9013 78.0735 33.392C77.2095 33.872 76.2548 34.112 75.2095 34.112ZM75.2095 32.528C75.9455 32.528 76.6015 32.3627 77.1775 32.032C77.7535 31.6907 78.2015 31.2107 78.5215 30.592C78.8522 29.9627 79.0175 29.2373 79.0175 28.416C79.0175 27.5947 78.8522 26.8747 78.5215 26.256C78.2015 25.6373 77.7535 25.1627 77.1775 24.832C76.6015 24.5013 75.9455 24.336 75.2095 24.336C74.4735 24.336 73.8175 24.5013 73.2415 24.832C72.6655 25.1627 72.2122 25.6373 71.8815 26.256C71.5615 26.8747 71.4015 27.5947 71.4015 28.416C71.4015 29.2373 71.5615 29.9627 71.8815 30.592C72.2122 31.2107 72.6655 31.6907 73.2415 32.032C73.8175 32.3627 74.4735 32.528 75.2095 32.528ZM90.4604 26.192C90.4604 26.7573 90.327 27.2907 90.0604 27.792C89.7937 28.2933 89.367 28.704 88.7804 29.024C88.1937 29.3333 87.4417 29.488 86.5244 29.488H84.5084V34H82.6844V22.88H86.5244C87.3777 22.88 88.0977 23.0293 88.6844 23.328C89.2817 23.616 89.7244 24.0107 90.0124 24.512C90.311 25.0133 90.4604 25.5733 90.4604 26.192ZM86.5244 28C87.2177 28 87.735 27.8453 88.0764 27.536C88.4177 27.216 88.5884 26.768 88.5884 26.192C88.5884 24.976 87.9004 24.368 86.5244 24.368H84.5084V28H86.5244ZM105.492 34H103.668L98.1803 25.696V34H96.3563V22.864H98.1803L103.668 31.152V22.864H105.492V34ZM112.96 34.112C111.925 34.112 110.97 33.872 110.096 33.392C109.232 32.9013 108.544 32.224 108.032 31.36C107.53 30.4853 107.28 29.504 107.28 28.416C107.28 27.328 107.53 26.352 108.032 25.488C108.544 24.624 109.232 23.952 110.096 23.472C110.97 22.9813 111.925 22.736 112.96 22.736C114.005 22.736 114.96 22.9813 115.824 23.472C116.698 23.952 117.386 24.624 117.888 25.488C118.389 26.352 118.64 27.328 118.64 28.416C118.64 29.504 118.389 30.4853 117.888 31.36C117.386 32.224 116.698 32.9013 115.824 33.392C114.96 33.872 114.005 34.112 112.96 34.112ZM112.96 32.528C113.696 32.528 114.352 32.3627 114.928 32.032C115.504 31.6907 115.952 31.2107 116.272 30.592C116.602 29.9627 116.768 29.2373 116.768 28.416C116.768 27.5947 116.602 26.8747 116.272 26.256C115.952 25.6373 115.504 25.1627 114.928 24.832C114.352 24.5013 113.696 24.336 112.96 24.336C112.224 24.336 111.568 24.5013 110.992 24.832C110.416 25.1627 109.962 25.6373 109.632 26.256C109.312 26.8747 109.152 27.5947 109.152 28.416C109.152 29.2373 109.312 29.9627 109.632 30.592C109.962 31.2107 110.416 31.6907 110.992 32.032C111.568 32.3627 112.224 32.528 112.96 32.528ZM134.914 22.88L131.618 34H129.554L127.218 25.584L124.738 34L122.69 34.016L119.538 22.88H121.474L123.778 31.936L126.274 22.88H128.322L130.642 31.888L132.962 22.88H134.914Z" fill="#FAFAFA"/>
<defs>
<radialGradient id="paint0_radial_134_1422" cx="0" cy="0" r="1" gradientUnits="userSpaceOnUse" gradientTransform="translate(92 28) scale(92 28)">
<stop stop-color="#DB4444"/>
<stop offset="0.265" stop-color="#A83434"/>
<stop offset="1" stop-color="#752424"/>
</radialGradient>
</defs>
</svg>
